<svg width="145" height="344" viewBox="0 0 145 344" fill="none" xmlns="http://www.w3.org/2000/svg">
<path d="M144.508 185.552C144.645 185.552 144.751 185.448 144.751 185.313C144.751 185.179 144.645 185.074 144.508 185.074C144.372 185.074 144.266 185.179 144.266 185.313C144.266 185.448 144.372 185.552 144.508 185.552Z" fill="black" fill-opacity="0.5"/>
<path d="M138.775 178.353C138.837 178.353 138.884 178.307 138.884 178.245C138.884 178.184 138.837 178.138 138.775 178.138C138.713 178.138 138.667 178.184 138.667 178.245C138.667 178.307 138.729 178.353 138.775 178.353Z" fill="black" fill-opacity="0.5"/>
<path d="M133.721 170.942C133.858 170.942 133.964 170.838 133.964 170.703C133.964 170.569 133.858 170.464 133.721 170.464C133.584 170.464 133.478 170.569 133.478 170.703C133.478 170.838 133.584 170.942 133.721 170.942Z" fill="black" fill-opacity="0.5"/>
<path d="M129.369 162.847C129.432 162.847 129.478 162.801 129.478 162.739C129.478 162.678 129.432 162.632 129.369 162.632C129.307 162.632 129.261 162.678 129.261 162.739C129.276 162.801 129.323 162.847 129.369 162.847Z" fill="black" fill-opacity="0.5"/>
<path d="M125.771 154.624C125.877 154.624 125.968 154.535 125.968 154.43C125.968 154.325 125.877 154.236 125.771 154.236C125.65 154.236 125.559 154.325 125.559 154.43C125.559 154.535 125.65 154.624 125.771 154.624Z" fill="black" fill-opacity="0.5"/>
<path d="M122.937 145.936C122.999 145.936 123.046 145.89 123.046 145.829C123.046 145.768 122.999 145.722 122.937 145.722C122.875 145.722 122.828 145.768 122.828 145.829C122.828 145.89 122.875 145.936 122.937 145.936Z" fill="black" fill-opacity="0.5"/>
<path d="M120.888 137.041C120.904 137.041 120.92 137.025 120.92 137.009C120.92 136.993 120.904 136.977 120.888 136.977C120.872 136.977 120.855 136.993 120.855 137.009C120.855 137.025 120.872 137.041 120.888 137.041Z" fill="black" fill-opacity="0.5"/>
<path d="M125.773 83.6503C125.79 83.6503 125.806 83.6343 125.806 83.6183C125.806 83.6024 125.79 83.5864 125.773 83.5864C125.757 83.5864 125.741 83.6024 125.741 83.6183C125.725 83.6343 125.741 83.6503 125.773 83.6503Z" fill="black" fill-opacity="0.5"/>
<path d="M141.17 197.025C141.413 197.025 141.61 196.831 141.61 196.592C141.61 196.353 141.413 196.159 141.17 196.159C140.927 196.159 140.73 196.353 140.73 196.592C140.73 196.831 140.927 197.025 141.17 197.025Z" fill="black" fill-opacity="0.5"/>
<path d="M135.01 190.18C135.177 190.18 135.314 190.045 135.314 189.881C135.314 189.716 135.177 189.582 135.01 189.582C134.844 189.582 134.707 189.716 134.707 189.881C134.707 190.045 134.844 190.18 135.01 190.18Z" fill="black" fill-opacity="0.5"/>
<path d="M129.428 182.997C129.595 182.997 129.731 182.863 129.731 182.699C129.731 182.534 129.595 182.4 129.428 182.4C129.261 182.4 129.124 182.534 129.124 182.699C129.124 182.863 129.276 182.997 129.428 182.997Z" fill="black" fill-opacity="0.5"/>
<path d="M124.466 175.498C124.694 175.498 124.876 175.318 124.876 175.094C124.876 174.87 124.694 174.691 124.466 174.691C124.238 174.691 124.056 174.87 124.056 175.094C124.056 175.318 124.238 175.498 124.466 175.498Z" fill="black" fill-opacity="0.5"/>
<path d="M120.157 167.446C120.339 167.446 120.491 167.297 120.491 167.117C120.491 166.923 120.339 166.789 120.157 166.789C119.975 166.789 119.823 166.938 119.823 167.117C119.808 167.297 119.96 167.446 120.157 167.446Z" fill="black" fill-opacity="0.5"/>
<path d="M116.502 159.109C116.668 159.109 116.805 158.975 116.805 158.811C116.805 158.646 116.668 158.512 116.502 158.512C116.335 158.512 116.198 158.646 116.198 158.811C116.198 158.975 116.335 159.109 116.502 159.109Z" fill="black" fill-opacity="0.5"/>
<path d="M113.573 150.487C113.71 150.487 113.816 150.383 113.816 150.248C113.816 150.114 113.71 150.009 113.573 150.009C113.437 150.009 113.331 150.114 113.331 150.248C113.331 150.383 113.437 150.487 113.573 150.487Z" fill="black" fill-opacity="0.5"/>
<path d="M111.344 141.7C111.48 141.7 111.587 141.596 111.587 141.461C111.587 141.327 111.48 141.222 111.344 141.222C111.207 141.222 111.101 141.327 111.101 141.461C111.101 141.596 111.207 141.7 111.344 141.7Z" fill="black" fill-opacity="0.5"/>
<path d="M109.841 132.757C109.947 132.757 110.038 132.667 110.038 132.562C110.038 132.458 109.947 132.368 109.841 132.368C109.735 132.368 109.644 132.458 109.644 132.562C109.644 132.667 109.735 132.757 109.841 132.757Z" fill="black" fill-opacity="0.5"/>
<path d="M109.101 123.681C109.179 123.681 109.241 123.62 109.241 123.543C109.241 123.467 109.179 123.405 109.101 123.405C109.024 123.405 108.961 123.467 108.961 123.543C108.961 123.62 109.024 123.681 109.101 123.681Z" fill="black" fill-opacity="0.5"/>
<path d="M109.101 114.604C109.163 114.604 109.209 114.558 109.209 114.496C109.209 114.435 109.163 114.389 109.101 114.389C109.039 114.389 108.992 114.435 108.992 114.496C108.992 114.558 109.039 114.604 109.101 114.604Z" fill="black" fill-opacity="0.5"/>
<path d="M109.843 105.524C109.859 105.524 109.876 105.508 109.876 105.492C109.876 105.476 109.859 105.46 109.843 105.46C109.827 105.46 109.811 105.476 109.811 105.492C109.811 105.508 109.827 105.524 109.843 105.524Z" fill="black" fill-opacity="0.5"/>
<path d="M111.345 96.6029C111.361 96.6029 111.377 96.5869 111.377 96.571C111.377 96.555 111.361 96.5391 111.345 96.5391C111.329 96.5391 111.313 96.555 111.313 96.571C111.313 96.5869 111.329 96.6029 111.345 96.6029Z" fill="black" fill-opacity="0.5"/>
<path d="M113.576 87.8344C113.592 87.8344 113.608 87.8184 113.608 87.8024C113.608 87.7865 113.592 87.7705 113.576 87.7705C113.56 87.7705 113.543 87.7865 113.543 87.8024C113.527 87.8184 113.543 87.8344 113.576 87.8344Z" fill="black" fill-opacity="0.5"/>
<path d="M116.503 79.2601C116.519 79.2601 116.535 79.2442 116.535 79.2282C116.535 79.2123 116.519 79.1963 116.503 79.1963C116.487 79.1963 116.471 79.2123 116.471 79.2282C116.471 79.2442 116.487 79.2601 116.503 79.2601Z" fill="black" fill-opacity="0.5"/>
<path d="M135.013 48.201C135.029 48.201 135.045 48.1851 135.045 48.1691C135.045 48.1532 135.029 48.1372 135.013 48.1372C134.997 48.1372 134.98 48.1532 134.98 48.1691C134.98 48.1851 134.997 48.201 135.013 48.201Z" fill="black" fill-opacity="0.5"/>
<path d="M145.009 214.296C145.419 214.296 145.752 213.967 145.752 213.564C145.752 213.16 145.419 212.832 145.009 212.832C144.599 212.832 144.266 213.16 144.266 213.564C144.266 213.967 144.584 214.296 145.009 214.296Z" fill="black" fill-opacity="0.5"/>
<path d="M138.044 208.291C138.408 208.291 138.697 208.007 138.697 207.648C138.697 207.29 138.408 207.006 138.044 207.006C137.695 207.006 137.392 207.29 137.392 207.648C137.392 208.007 137.695 208.291 138.044 208.291Z" fill="black" fill-opacity="0.5"/>
<path d="M131.552 201.801C131.855 201.801 132.098 201.562 132.098 201.263C132.098 200.965 131.855 200.726 131.552 200.726C131.248 200.726 131.006 200.965 131.006 201.263C131.006 201.562 131.248 201.801 131.552 201.801Z" fill="black" fill-opacity="0.5"/>
<path d="M125.559 194.752C125.741 194.752 125.893 194.603 125.893 194.408C125.893 194.229 125.741 194.08 125.559 194.08C125.362 194.08 125.225 194.229 125.225 194.408C125.225 194.588 125.377 194.752 125.559 194.752Z" fill="black" fill-opacity="0.5"/>
<path d="M120.112 187.536C120.34 187.536 120.522 187.357 120.522 187.133C120.522 186.909 120.34 186.729 120.112 186.729C119.885 186.729 119.703 186.909 119.703 187.133C119.703 187.357 119.885 187.536 120.112 187.536Z" fill="black" fill-opacity="0.5"/>
<path d="M115.226 179.814C115.424 179.814 115.56 179.665 115.56 179.485C115.56 179.306 115.408 179.157 115.226 179.157C115.044 179.157 114.893 179.306 114.893 179.485C114.877 179.665 115.029 179.814 115.226 179.814Z" fill="black" fill-opacity="0.5"/>
<path d="M110.933 171.819C111.131 171.819 111.282 171.67 111.282 171.491C111.282 171.312 111.131 171.162 110.933 171.162C110.751 171.162 110.6 171.312 110.6 171.491C110.584 171.67 110.751 171.819 110.933 171.819Z" fill="black" fill-opacity="0.5"/>
<path d="M107.262 163.5C107.429 163.5 107.565 163.365 107.565 163.201C107.565 163.037 107.429 162.902 107.262 162.902C107.095 162.902 106.958 163.037 106.958 163.201C106.958 163.365 107.095 163.5 107.262 163.5Z" fill="black" fill-opacity="0.5"/>
<path d="M104.228 155.002C104.41 155.002 104.562 154.853 104.562 154.673C104.562 154.494 104.41 154.345 104.228 154.345C104.031 154.345 103.894 154.494 103.894 154.673C103.894 154.853 104.046 155.002 104.228 155.002Z" fill="black" fill-opacity="0.5"/>
<path d="M101.845 146.258C102.028 146.258 102.179 146.108 102.179 145.929C102.179 145.75 102.028 145.585 101.845 145.585C101.648 145.585 101.512 145.735 101.512 145.929C101.512 146.108 101.663 146.258 101.845 146.258Z" fill="black" fill-opacity="0.5"/>
<path d="M100.146 137.337C100.313 137.337 100.45 137.202 100.45 137.038C100.45 136.874 100.313 136.739 100.146 136.739C99.9793 136.739 99.8428 136.874 99.8428 137.038C99.8428 137.202 99.9793 137.337 100.146 137.337Z" fill="black" fill-opacity="0.5"/>
<path d="M99.1146 128.365C99.2815 128.365 99.418 128.231 99.418 128.066C99.418 127.902 99.2815 127.768 99.1146 127.768C98.9477 127.768 98.8112 127.902 98.8112 128.066C98.8112 128.231 98.9477 128.365 99.1146 128.365Z" fill="black" fill-opacity="0.5"/>
<path d="M98.7662 119.219C98.8876 119.219 98.9786 119.129 98.9786 119.024C98.9786 118.92 98.8876 118.83 98.7662 118.83C98.66 118.83 98.569 118.92 98.569 119.024C98.569 119.129 98.66 119.219 98.7662 119.219Z" fill="black" fill-opacity="0.5"/>
<path d="M99.1183 110.126C99.196 110.126 99.2581 110.065 99.2581 109.988C99.2581 109.911 99.196 109.85 99.1183 109.85C99.0407 109.85 98.9785 109.911 98.9785 109.988C98.9785 110.065 99.0407 110.126 99.1183 110.126Z" fill="black" fill-opacity="0.5"/>
<path d="M100.149 101.135C100.227 101.135 100.289 101.074 100.289 100.997C100.289 100.921 100.227 100.859 100.149 100.859C100.072 100.859 100.01 100.921 100.01 100.997C100.01 101.074 100.072 101.135 100.149 101.135Z" fill="black" fill-opacity="0.5"/>
<path d="M101.848 92.2142C101.91 92.2142 101.956 92.1682 101.956 92.1068C101.956 92.0455 101.91 91.9995 101.848 91.9995C101.785 91.9995 101.739 92.0455 101.739 92.1068C101.739 92.1682 101.801 92.2142 101.848 92.2142Z" fill="black" fill-opacity="0.5"/>
<path d="M104.229 83.413C104.245 83.413 104.261 83.397 104.261 83.3811C104.261 83.3651 104.245 83.3491 104.229 83.3491C104.213 83.3491 104.197 83.3651 104.197 83.3811C104.197 83.397 104.213 83.413 104.229 83.413Z" fill="black" fill-opacity="0.5"/>
<path d="M107.264 74.8802C107.28 74.8802 107.296 74.8643 107.296 74.8483C107.296 74.8324 107.28 74.8164 107.264 74.8164C107.248 74.8164 107.232 74.8324 107.232 74.8483C107.232 74.8643 107.248 74.8802 107.264 74.8802Z" fill="black" fill-opacity="0.5"/>
<path d="M110.936 66.5873C110.952 66.5873 110.968 66.5713 110.968 66.5554C110.968 66.5394 110.952 66.5234 110.936 66.5234C110.92 66.5234 110.904 66.5394 110.904 66.5554C110.904 66.5713 110.92 66.5873 110.936 66.5873Z" fill="black" fill-opacity="0.5"/>
<path d="M115.229 58.5985C115.245 58.5985 115.261 58.5825 115.261 58.5666C115.261 58.5506 115.245 58.5347 115.229 58.5347C115.213 58.5347 115.197 58.5506 115.197 58.5666C115.197 58.5825 115.213 58.5985 115.229 58.5985Z" fill="black" fill-opacity="0.5"/>
<path d="M120.114 50.9525C120.13 50.9525 120.146 50.9366 120.146 50.9206C120.146 50.9046 120.13 50.8887 120.114 50.8887C120.098 50.8887 120.082 50.9046 120.082 50.9206C120.082 50.9366 120.098 50.9525 120.114 50.9525Z" fill="black" fill-opacity="0.5"/>
<path d="M125.561 43.6703C125.577 43.6703 125.593 43.6543 125.593 43.6384C125.593 43.6224 125.577 43.6064 125.561 43.6064C125.544 43.6064 125.528 43.6224 125.528 43.6384C125.528 43.6543 125.544 43.6703 125.561 43.6703Z" fill="black" fill-opacity="0.5"/>
<path d="M131.554 36.8173C131.57 36.8173 131.586 36.8013 131.586 36.7853C131.586 36.7694 131.57 36.7534 131.554 36.7534C131.538 36.7534 131.522 36.7694 131.522 36.7853C131.522 36.8013 131.538 36.8173 131.554 36.8173Z" fill="black" fill-opacity="0.5"/>
<path d="M138.047 30.4193C138.063 30.4193 138.079 30.4034 138.079 30.3874C138.079 30.3714 138.063 30.3555 138.047 30.3555C138.031 30.3555 138.015 30.3714 138.015 30.3874C138.015 30.4034 138.031 30.4193 138.047 30.4193Z" fill="black" fill-opacity="0.5"/>
<path d="M145.01 24.5189C145.026 24.5189 145.042 24.503 145.042 24.487C145.042 24.471 145.026 24.4551 145.01 24.4551C144.994 24.4551 144.978 24.471 144.978 24.487C144.978 24.503 144.994 24.5189 145.01 24.5189Z" fill="black" fill-opacity="0.5"/>
<path d="M142.263 225.795C143.173 225.795 143.902 225.078 143.902 224.181C143.902 223.3 143.173 222.568 142.263 222.568C141.368 222.568 140.625 223.285 140.625 224.181C140.625 225.078 141.368 225.795 142.263 225.795Z" fill="black" fill-opacity="0.5"/>
<path d="M135.087 219.419C135.572 219.419 135.967 219.03 135.967 218.552C135.967 218.074 135.572 217.686 135.087 217.686C134.601 217.686 134.207 218.074 134.207 218.552C134.207 219.03 134.601 219.419 135.087 219.419Z" fill="black" fill-opacity="0.5"/>
<path d="M128.32 213.308C128.806 213.308 129.2 212.92 129.2 212.442C129.2 211.964 128.806 211.575 128.32 211.575C127.835 211.575 127.44 211.964 127.44 212.442C127.44 212.92 127.835 213.308 128.32 213.308Z" fill="black" fill-opacity="0.5"/>
<path d="M121.994 206.587C122.389 206.587 122.707 206.274 122.707 205.885C122.707 205.497 122.389 205.183 121.994 205.183C121.6 205.183 121.281 205.497 121.281 205.885C121.281 206.274 121.6 206.587 121.994 206.587Z" fill="black" fill-opacity="0.5"/>
<path d="M116.152 199.55C116.501 199.55 116.805 199.267 116.805 198.908C116.805 198.564 116.516 198.266 116.152 198.266C115.788 198.266 115.5 198.549 115.5 198.908C115.5 199.267 115.788 199.55 116.152 199.55Z" fill="black" fill-opacity="0.5"/>
<path d="M110.797 192.199C111.161 192.199 111.45 191.915 111.45 191.556C111.45 191.198 111.161 190.914 110.797 190.914C110.448 190.914 110.145 191.198 110.145 191.556C110.16 191.915 110.448 192.199 110.797 192.199Z" fill="black" fill-opacity="0.5"/>
<path d="M105.988 184.591C106.398 184.591 106.731 184.263 106.731 183.859C106.731 183.456 106.398 183.112 105.988 183.112C105.578 183.112 105.245 183.441 105.245 183.859C105.229 184.263 105.563 184.591 105.988 184.591Z" fill="black" fill-opacity="0.5"/>
<path d="M101.709 176.363C101.998 176.363 102.225 176.138 102.225 175.855C102.225 175.571 101.998 175.347 101.709 175.347C101.421 175.347 101.194 175.571 101.194 175.855C101.209 176.138 101.436 176.363 101.709 176.363Z" fill="black" fill-opacity="0.5"/>
<path d="M98.0226 167.906C98.2047 167.906 98.3564 167.757 98.3564 167.577C98.3564 167.398 98.2047 167.249 98.0226 167.249C97.8254 167.249 97.6888 167.398 97.6888 167.577C97.6888 167.757 97.8254 167.906 98.0226 167.906Z" fill="black" fill-opacity="0.5"/>
<path d="M94.9121 159.464C95.1396 159.464 95.3217 159.285 95.3217 159.061C95.3217 158.837 95.1396 158.657 94.9121 158.657C94.6845 158.657 94.5024 158.837 94.5024 159.061C94.5024 159.285 94.6845 159.464 94.9121 159.464Z" fill="black" fill-opacity="0.5"/>
<path d="M92.4091 150.772C92.6367 150.772 92.8188 150.592 92.8188 150.368C92.8188 150.144 92.6367 149.965 92.4091 149.965C92.1816 149.965 91.9995 150.144 91.9995 150.368C91.9995 150.592 92.1816 150.772 92.4091 150.772Z" fill="black" fill-opacity="0.5"/>
<path d="M90.5127 141.926C90.7402 141.926 90.9223 141.747 90.9223 141.523C90.9223 141.298 90.7402 141.119 90.5127 141.119C90.2851 141.119 90.103 141.298 90.103 141.523C90.103 141.747 90.2851 141.926 90.5127 141.926Z" fill="black" fill-opacity="0.5"/>
<path d="M89.2536 132.906C89.4356 132.906 89.5873 132.756 89.5873 132.577C89.5873 132.398 89.4356 132.249 89.2536 132.249C89.0563 132.249 88.9198 132.398 88.9198 132.577C88.9198 132.756 89.0715 132.906 89.2536 132.906Z" fill="black" fill-opacity="0.5"/>
<path d="M88.6161 123.743C88.7223 123.743 88.8133 123.653 88.8133 123.549C88.8133 123.444 88.7223 123.354 88.6161 123.354C88.5099 123.354 88.4188 123.444 88.4188 123.549C88.4188 123.653 88.5099 123.743 88.6161 123.743Z" fill="black" fill-opacity="0.5"/>
<path d="M88.6169 114.794C88.7838 114.794 88.9203 114.659 88.9203 114.495C88.9203 114.331 88.7838 114.196 88.6169 114.196C88.45 114.196 88.3135 114.331 88.3135 114.495C88.3135 114.659 88.45 114.794 88.6169 114.794Z" fill="black" fill-opacity="0.5"/>
<path d="M89.2536 105.77C89.4205 105.77 89.5571 105.635 89.5571 105.471C89.5571 105.307 89.4205 105.172 89.2536 105.172C89.0867 105.172 88.9502 105.307 88.9502 105.471C88.9502 105.635 89.0867 105.77 89.2536 105.77Z" fill="black" fill-opacity="0.5"/>
<path d="M90.5166 96.6696C90.5943 96.6696 90.6564 96.6083 90.6564 96.5316C90.6564 96.4549 90.5943 96.3936 90.5166 96.3936C90.439 96.3936 90.3768 96.4549 90.3768 96.5316C90.3768 96.6083 90.439 96.6696 90.5166 96.6696Z" fill="black" fill-opacity="0.5"/>
<path d="M92.4087 87.8755C92.5149 87.8755 92.6059 87.7859 92.6059 87.6813C92.6059 87.5618 92.5149 87.4722 92.4087 87.4722C92.3025 87.4722 92.2115 87.5618 92.2115 87.6813C92.1963 87.7859 92.2873 87.8755 92.4087 87.8755Z" fill="black" fill-opacity="0.5"/>
<path d="M94.9162 79.1149C94.9938 79.1149 95.056 79.0535 95.056 78.9769C95.056 78.9002 94.9938 78.8389 94.9162 78.8389C94.8385 78.8389 94.7764 78.9002 94.7764 78.9769C94.7764 79.0535 94.8385 79.1149 94.9162 79.1149Z" fill="black" fill-opacity="0.5"/>
<path d="M98.0249 70.5009C98.041 70.5009 98.0571 70.4849 98.0571 70.4689C98.0571 70.453 98.041 70.437 98.0249 70.437C98.0088 70.437 97.9926 70.453 97.9926 70.4689C97.9765 70.4849 97.9927 70.5009 98.0249 70.5009Z" fill="black" fill-opacity="0.5"/>
<path d="M101.711 62.2245C101.727 62.2245 101.743 62.2085 101.743 62.1926C101.743 62.1766 101.727 62.1606 101.711 62.1606C101.695 62.1606 101.679 62.1766 101.679 62.1926C101.679 62.2085 101.695 62.2245 101.711 62.2245Z" fill="black" fill-opacity="0.5"/>
<path d="M105.99 54.2796C106.052 54.2796 106.099 54.2336 106.099 54.1723C106.099 54.1109 106.052 54.0649 105.99 54.0649C105.928 54.0649 105.881 54.1109 105.881 54.1723C105.881 54.2336 105.928 54.2796 105.99 54.2796Z" fill="black" fill-opacity="0.5"/>
<path d="M110.799 46.5872C110.862 46.5872 110.908 46.5412 110.908 46.4799C110.908 46.4186 110.862 46.3726 110.799 46.3726C110.737 46.3726 110.691 46.4186 110.691 46.4799C110.691 46.5412 110.737 46.5872 110.799 46.5872Z" fill="black" fill-opacity="0.5"/>
<path d="M116.156 39.2711C116.233 39.2711 116.296 39.2098 116.296 39.1331C116.296 39.0564 116.233 38.9951 116.156 38.9951C116.078 38.9951 116.016 39.0564 116.016 39.1331C116.016 39.2098 116.078 39.2711 116.156 39.2711Z" fill="black" fill-opacity="0.5"/>
<path d="M121.997 32.2591C122.059 32.2591 122.105 32.2131 122.105 32.1518C122.105 32.0904 122.059 32.0444 121.997 32.0444C121.934 32.0444 121.888 32.0904 121.888 32.1518C121.888 32.2131 121.934 32.2591 121.997 32.2591Z" fill="black" fill-opacity="0.5"/>
<path d="M128.323 25.7054C128.385 25.7054 128.431 25.6594 128.431 25.5981C128.431 25.5367 128.385 25.4907 128.323 25.4907C128.26 25.4907 128.214 25.5367 128.214 25.5981C128.214 25.6594 128.26 25.7054 128.323 25.7054Z" fill="black" fill-opacity="0.5"/>
<path d="M135.089 19.5945C135.151 19.5945 135.198 19.5485 135.198 19.4872C135.198 19.4259 135.151 19.3799 135.089 19.3799C135.027 19.3799 134.98 19.4259 134.98 19.4872C134.98 19.5485 135.027 19.5945 135.089 19.5945Z" fill="black" fill-opacity="0.5"/>
<path d="M142.264 13.8812C142.281 13.8812 142.297 13.8653 142.297 13.8493C142.297 13.8333 142.281 13.8174 142.264 13.8174C142.248 13.8174 142.232 13.8333 142.232 13.8493C142.232 13.8653 142.248 13.8812 142.264 13.8812Z" fill="black" fill-opacity="0.5"/>
<path d="M139.608 236.838C140.791 236.838 141.747 235.897 141.747 234.732C141.747 233.567 140.791 232.625 139.608 232.625C138.424 232.625 137.469 233.567 137.469 234.732C137.469 235.882 138.424 236.838 139.608 236.838Z" fill="black" fill-opacity="0.5"/>
<path d="M132.25 231.166C133.282 231.166 134.116 230.345 134.116 229.329C134.116 228.313 133.282 227.491 132.25 227.491C131.218 227.491 130.384 228.313 130.384 229.329C130.369 230.33 131.218 231.166 132.25 231.166Z" fill="black" fill-opacity="0.5"/>
<path d="M125.255 225.399C126.348 225.399 127.228 224.533 127.228 223.457C127.228 222.382 126.348 221.515 125.255 221.515C124.163 221.515 123.283 222.382 123.283 223.457C123.283 224.533 124.163 225.399 125.255 225.399Z" fill="black" fill-opacity="0.5"/>
<path d="M118.656 218.436C119.369 218.436 119.945 217.868 119.945 217.166C119.945 216.464 119.369 215.896 118.656 215.896C117.943 215.896 117.366 216.464 117.366 217.166C117.366 217.868 117.943 218.436 118.656 218.436Z" fill="black" fill-opacity="0.5"/>
<path d="M112.481 211.527C113.087 211.527 113.573 211.049 113.573 210.452C113.573 209.854 113.087 209.376 112.481 209.376C111.874 209.376 111.388 209.854 111.388 210.452C111.388 211.049 111.874 211.527 112.481 211.527Z" fill="black" fill-opacity="0.5"/>
<path d="M106.761 204.465C107.368 204.465 107.853 203.987 107.853 203.389C107.853 202.792 107.368 202.313 106.761 202.313C106.154 202.313 105.668 202.792 105.668 203.389C105.668 203.987 106.154 204.465 106.761 204.465Z" fill="black" fill-opacity="0.5"/>
<path d="M101.497 196.922C102.028 196.922 102.453 196.504 102.453 195.981C102.453 195.458 102.028 195.04 101.497 195.04C100.966 195.04 100.541 195.458 100.541 195.981C100.556 196.504 100.981 196.922 101.497 196.922Z" fill="black" fill-opacity="0.5"/>
<path d="M96.748 188.99C97.1577 188.99 97.4915 188.661 97.4915 188.257C97.4915 187.854 97.1577 187.525 96.748 187.525C96.3384 187.525 96.0046 187.854 96.0046 188.257C96.0046 188.661 96.3232 188.99 96.748 188.99Z" fill="black" fill-opacity="0.5"/>
<path d="M92.5008 181.067C92.9711 181.067 93.3504 180.694 93.3504 180.231C93.3504 179.768 92.9711 179.394 92.5008 179.394C92.0305 179.394 91.6512 179.768 91.6512 180.231C91.636 180.694 92.0305 181.067 92.5008 181.067Z" fill="black" fill-opacity="0.5"/>
<path d="M88.7833 172.793C89.2536 172.793 89.6329 172.42 89.6329 171.957C89.6329 171.494 89.2536 171.12 88.7833 171.12C88.313 171.12 87.9337 171.494 87.9337 171.957C87.9337 172.42 88.313 172.793 88.7833 172.793Z" fill="black" fill-opacity="0.5"/>
<path d="M85.6124 164.337C86.0979 164.337 86.4924 163.949 86.4924 163.471C86.4924 162.992 86.0979 162.604 85.6124 162.604C85.1269 162.604 84.7325 162.992 84.7325 163.471C84.7173 163.949 85.1118 164.337 85.6124 164.337Z" fill="black" fill-opacity="0.5"/>
<path d="M82.9876 155.434C83.3517 155.434 83.6399 155.15 83.6399 154.791C83.6399 154.433 83.3517 154.149 82.9876 154.149C82.6386 154.149 82.3352 154.433 82.3352 154.791C82.3504 155.15 82.6386 155.434 82.9876 155.434Z" fill="black" fill-opacity="0.5"/>
<path d="M80.9552 146.585C81.2904 146.585 81.5621 146.318 81.5621 145.988C81.5621 145.658 81.2904 145.39 80.9552 145.39C80.6201 145.39 80.3484 145.658 80.3484 145.988C80.3484 146.318 80.6201 146.585 80.9552 146.585Z" fill="black" fill-opacity="0.5"/>
<path d="M79.4825 137.764C79.8769 137.764 80.1955 137.45 80.1955 137.062C80.1955 136.673 79.8769 136.359 79.4825 136.359C79.088 136.359 78.7694 136.673 78.7694 137.062C78.7694 137.45 79.088 137.764 79.4825 137.764Z" fill="black" fill-opacity="0.5"/>
<path d="M78.6035 128.598C78.907 128.598 79.1497 128.359 79.1497 128.06C79.1497 127.761 78.907 127.522 78.6035 127.522C78.3001 127.522 78.0574 127.761 78.0574 128.06C78.0574 128.359 78.3001 128.598 78.6035 128.598Z" fill="black" fill-opacity="0.5"/>
<path d="M78.3145 119.516C78.6028 119.516 78.8304 119.292 78.8304 119.008C78.8304 118.725 78.6028 118.5 78.3145 118.5C78.0263 118.5 77.7987 118.725 77.7987 119.008C77.7987 119.292 78.0263 119.516 78.3145 119.516Z" fill="black" fill-opacity="0.5"/>
<path d="M78.6032 110.418C78.8459 110.418 79.0431 110.224 79.0431 109.985C79.0431 109.746 78.8459 109.552 78.6032 109.552C78.3604 109.552 78.1632 109.746 78.1632 109.985C78.1632 110.224 78.3604 110.418 78.6032 110.418Z" fill="black" fill-opacity="0.5"/>
<path d="M79.4834 101.413C79.7262 101.413 79.9234 101.219 79.9234 100.98C79.9234 100.741 79.7262 100.546 79.4834 100.546C79.2407 100.546 79.0435 100.741 79.0435 100.98C79.0435 101.219 79.2407 101.413 79.4834 101.413Z" fill="black" fill-opacity="0.5"/>
<path d="M80.9552 92.3834C81.1373 92.3834 81.289 92.234 81.289 92.0547C81.289 91.8755 81.1373 91.7261 80.9552 91.7261C80.758 91.7261 80.6214 91.8755 80.6214 92.0547C80.6062 92.234 80.758 92.3834 80.9552 92.3834Z" fill="black" fill-opacity="0.5"/>
<path d="M82.9882 83.4392C83.0944 83.4392 83.1855 83.3496 83.1855 83.245C83.1855 83.1404 83.0944 83.0508 82.9882 83.0508C82.882 83.0508 82.791 83.1404 82.791 83.245C82.791 83.3496 82.882 83.4392 82.9882 83.4392Z" fill="black" fill-opacity="0.5"/>
<path d="M85.6131 74.8903C85.7974 74.8903 85.9468 74.7431 85.9468 74.5616C85.9468 74.3801 85.7974 74.2329 85.6131 74.2329C85.4287 74.2329 85.2793 74.3801 85.2793 74.5616C85.2793 74.7431 85.4287 74.8903 85.6131 74.8903Z" fill="black" fill-opacity="0.5"/>
<path d="M88.7862 66.2238C88.8638 66.2238 88.9259 66.1624 88.9259 66.0858C88.9259 66.0091 88.8638 65.9478 88.7862 65.9478C88.7085 65.9478 88.6464 66.0091 88.6464 66.0858C88.6464 66.1624 88.7085 66.2238 88.7862 66.2238Z" fill="black" fill-opacity="0.5"/>
<path d="M92.5008 58.0137C92.607 58.0137 92.698 57.9241 92.698 57.8195C92.698 57.7 92.607 57.6104 92.5008 57.6104C92.3946 57.6104 92.3035 57.7 92.3035 57.8195C92.2884 57.9241 92.3794 58.0137 92.5008 58.0137Z" fill="black" fill-opacity="0.5"/>
<path d="M96.7513 49.9066C96.8134 49.9066 96.86 49.8606 96.86 49.7992C96.86 49.7379 96.8134 49.6919 96.7513 49.6919C96.6892 49.6919 96.6426 49.7379 96.6426 49.7992C96.6426 49.8606 96.6892 49.9066 96.7513 49.9066Z" fill="black" fill-opacity="0.5"/>
<path d="M101.497 42.2681C101.603 42.2681 101.694 42.1785 101.694 42.0739C101.694 41.9544 101.603 41.8647 101.497 41.8647C101.39 41.8647 101.299 41.9544 101.299 42.0739C101.299 42.1785 101.39 42.2681 101.497 42.2681Z" fill="black" fill-opacity="0.5"/>
<path d="M106.765 34.7906C106.842 34.7906 106.904 34.7293 106.904 34.6526C106.904 34.576 106.842 34.5146 106.765 34.5146C106.687 34.5146 106.625 34.576 106.625 34.6526C106.625 34.7293 106.687 34.7906 106.765 34.7906Z" fill="black" fill-opacity="0.5"/>
<path d="M112.484 27.6732C112.546 27.6732 112.592 27.6272 112.592 27.5658C112.592 27.5045 112.546 27.4585 112.484 27.4585C112.422 27.4585 112.375 27.5045 112.375 27.5658C112.375 27.6272 112.422 27.6732 112.484 27.6732Z" fill="black" fill-opacity="0.5"/>
<path d="M118.659 20.9774C118.721 20.9774 118.767 20.9314 118.767 20.87C118.767 20.8087 118.721 20.7627 118.659 20.7627C118.596 20.7627 118.55 20.8087 118.55 20.87C118.55 20.9314 118.596 20.9774 118.659 20.9774Z" fill="black" fill-opacity="0.5"/>
<path d="M125.257 14.6293C125.273 14.6293 125.29 14.6133 125.29 14.5974C125.29 14.5814 125.273 14.5654 125.257 14.5654C125.241 14.5654 125.225 14.5814 125.225 14.5974C125.225 14.6133 125.241 14.6293 125.257 14.6293Z" fill="black" fill-opacity="0.5"/>
<path d="M144.827 252.272C146.147 252.272 147.209 251.226 147.209 249.927C147.209 248.627 146.147 247.581 144.827 247.581C143.507 247.581 142.445 248.642 142.445 249.927C142.43 251.211 143.507 252.272 144.827 252.272Z" fill="black" fill-opacity="0.5"/>
<path d="M137.013 247.636C138.409 247.636 139.532 246.531 139.532 245.156C139.532 243.782 138.409 242.676 137.013 242.676C135.617 242.676 134.495 243.782 134.495 245.156C134.495 246.531 135.617 247.636 137.013 247.636Z" fill="black" fill-opacity="0.5"/>
<path d="M129.503 242.201C130.76 242.201 131.779 241.198 131.779 239.96C131.779 238.723 130.76 237.719 129.503 237.719C128.247 237.719 127.228 238.723 127.228 239.96C127.228 241.198 128.247 242.201 129.503 242.201Z" fill="black" fill-opacity="0.5"/>
<path d="M122.327 237.036C123.844 237.036 125.088 235.826 125.088 234.317C125.088 232.823 123.859 231.598 122.327 231.598C120.795 231.598 119.566 232.808 119.566 234.317C119.566 235.826 120.795 237.036 122.327 237.036Z" fill="black" fill-opacity="0.5"/>
<path d="M115.501 230.746C116.896 230.746 118.019 229.64 118.019 228.266C118.019 226.891 116.896 225.786 115.501 225.786C114.105 225.786 112.982 226.891 112.982 228.266C112.967 229.64 114.105 230.746 115.501 230.746Z" fill="black" fill-opacity="0.5"/>
<path d="M109.053 224.301C110.449 224.301 111.571 223.196 111.571 221.821C111.571 220.447 110.449 219.341 109.053 219.341C107.657 219.341 106.534 220.447 106.534 221.821C106.534 223.196 107.657 224.301 109.053 224.301Z" fill="black" fill-opacity="0.5"/>
<path d="M102.999 216.786C104 216.786 104.804 215.994 104.804 215.008C104.804 214.022 104 213.23 102.999 213.23C101.998 213.23 101.194 214.022 101.194 215.008C101.209 215.994 102.013 216.786 102.999 216.786Z" fill="black" fill-opacity="0.5"/>
<path d="M97.3857 209.307C98.1898 209.307 98.8573 208.665 98.8573 207.873C98.8573 207.081 98.2049 206.439 97.3857 206.439C96.5816 206.439 95.9292 207.081 95.9292 207.873C95.9292 208.665 96.5816 209.307 97.3857 209.307Z" fill="black" fill-opacity="0.5"/>
<path d="M92.2116 201.928C93.0746 201.928 93.7742 201.239 93.7742 200.389C93.7742 199.539 93.0746 198.85 92.2116 198.85C91.3485 198.85 90.6489 199.539 90.6489 200.389C90.6489 201.239 91.3485 201.928 92.2116 201.928Z" fill="black" fill-opacity="0.5"/>
<path d="M87.5086 194.17C88.3733 194.17 89.0712 193.483 89.0712 192.631C89.0712 191.78 88.3733 191.092 87.5086 191.092C86.6438 191.092 85.9459 191.78 85.9459 192.631C85.9307 193.483 86.6438 194.17 87.5086 194.17Z" fill="black" fill-opacity="0.5"/>
<path d="M83.2759 185.912C84.0041 185.912 84.611 185.329 84.611 184.597C84.611 183.88 84.0193 183.282 83.2759 183.282C82.5477 183.282 81.9408 183.865 81.9408 184.597C81.9408 185.329 82.5477 185.912 83.2759 185.912Z" fill="black" fill-opacity="0.5"/>
<path d="M79.5441 177.411C80.151 177.411 80.6365 176.933 80.6365 176.335C80.6365 175.738 80.151 175.26 79.5441 175.26C78.9373 175.26 78.4518 175.738 78.4518 176.335C78.4518 176.933 78.9373 177.411 79.5441 177.411Z" fill="black" fill-opacity="0.5"/>
<path d="M76.3127 168.742C76.7982 168.742 77.1926 168.354 77.1926 167.876C77.1926 167.398 76.7982 167.009 76.3127 167.009C75.8272 167.009 75.4327 167.398 75.4327 167.876C75.4327 168.354 75.8272 168.742 76.3127 168.742Z" fill="black" fill-opacity="0.5"/>
<path d="M73.6113 160.3C74.2181 160.3 74.7036 159.822 74.7036 159.225C74.7036 158.627 74.2181 158.149 73.6113 158.149C73.0044 158.149 72.5189 158.627 72.5189 159.225C72.5189 159.822 73.0044 160.3 73.6113 160.3Z" fill="black" fill-opacity="0.5"/>
<path d="M71.4274 151.141C71.8219 151.141 72.1405 150.827 72.1405 150.438C72.1405 150.05 71.8219 149.736 71.4274 149.736C71.033 149.736 70.7144 150.05 70.7144 150.438C70.7144 150.827 71.033 151.141 71.4274 151.141Z" fill="black" fill-opacity="0.5"/>
<path d="M69.7881 142.255C70.1826 142.255 70.5012 141.942 70.5012 141.553C70.5012 141.165 70.1826 140.851 69.7881 140.851C69.3937 140.851 69.0751 141.165 69.0751 141.553C69.0751 141.927 69.3937 142.255 69.7881 142.255Z" fill="black" fill-opacity="0.5"/>
<path d="M68.6966 133.307C69.1063 133.307 69.44 132.979 69.44 132.575C69.44 132.172 69.1063 131.843 68.6966 131.843C68.287 131.843 67.9532 132.172 67.9532 132.575C67.9381 132.979 68.287 133.307 68.6966 133.307Z" fill="black" fill-opacity="0.5"/>
<path d="M68.1503 124.251C68.5448 124.251 68.8634 123.937 68.8634 123.549C68.8634 123.16 68.5448 122.847 68.1503 122.847C67.7559 122.847 67.4373 123.16 67.4373 123.549C67.4373 123.922 67.7559 124.251 68.1503 124.251Z" fill="black" fill-opacity="0.5"/>
<path d="M68.1505 115.141C68.5146 115.141 68.8029 114.857 68.8029 114.498C68.8029 114.155 68.5146 113.856 68.1505 113.856C67.7864 113.856 67.4982 114.14 67.4982 114.498C67.4982 114.857 67.7864 115.141 68.1505 115.141Z" fill="black" fill-opacity="0.5"/>
<path d="M68.6964 105.968C68.9846 105.968 69.2122 105.743 69.2122 105.46C69.2122 105.176 68.9846 104.952 68.6964 104.952C68.4081 104.952 68.1805 105.176 68.1805 105.46C68.1805 105.743 68.4081 105.968 68.6964 105.968Z" fill="black" fill-opacity="0.5"/>
<path d="M69.7886 97.0283C70.092 97.0283 70.3348 96.7892 70.3348 96.4905C70.3348 96.1917 70.092 95.9526 69.7886 95.9526C69.4852 95.9526 69.2424 96.1917 69.2424 96.4905C69.2424 96.7892 69.4852 97.0283 69.7886 97.0283Z" fill="black" fill-opacity="0.5"/>
<path d="M71.4273 88.0974C71.7156 88.0974 71.9432 87.8733 71.9432 87.5895C71.9432 87.3056 71.7156 87.0815 71.4273 87.0815C71.1391 87.0815 70.9115 87.3056 70.9115 87.5895C70.9115 87.8733 71.1542 88.0974 71.4273 88.0974Z" fill="black" fill-opacity="0.5"/>
<path d="M73.6113 79.3133C73.8995 79.3133 74.1271 79.0892 74.1271 78.8053C74.1271 78.5215 73.8995 78.2974 73.6113 78.2974C73.323 78.2974 73.0955 78.5215 73.0955 78.8053C73.0955 79.0892 73.323 79.3133 73.6113 79.3133Z" fill="black" fill-opacity="0.5"/>
<path d="M76.3125 70.4979C76.5098 70.4979 76.6463 70.3486 76.6463 70.1543C76.6463 69.9601 76.4946 69.8257 76.3125 69.8257C76.1305 69.8257 75.9788 69.9751 75.9788 70.1543C75.9788 70.3336 76.1305 70.4979 76.3125 70.4979Z" fill="black" fill-opacity="0.5"/>
<path d="M79.5437 62.1017C79.7712 62.1017 79.9533 61.9224 79.9533 61.6983C79.9533 61.4742 79.7712 61.2949 79.5437 61.2949C79.3161 61.2949 79.134 61.4742 79.134 61.6983C79.134 61.9224 79.3161 62.1017 79.5437 62.1017Z" fill="black" fill-opacity="0.5"/>
<path d="M83.2762 54.0355C83.61 54.0355 83.883 53.7666 83.883 53.4379C83.883 53.1092 83.61 52.8403 83.2762 52.8403C82.9424 52.8403 82.6693 53.1092 82.6693 53.4379C82.6693 53.7666 82.9424 54.0355 83.2762 54.0355Z" fill="black" fill-opacity="0.5"/>
<path d="M87.5091 45.7143C87.676 45.7143 87.8126 45.5798 87.8126 45.4155C87.8126 45.2512 87.676 45.1167 87.5091 45.1167C87.3422 45.1167 87.2057 45.2512 87.2057 45.4155C87.2057 45.5798 87.3422 45.7143 87.5091 45.7143Z" fill="black" fill-opacity="0.5"/>
<path d="M92.2125 37.9457C92.3794 37.9457 92.5159 37.8113 92.5159 37.6469C92.5159 37.4826 92.3794 37.3481 92.2125 37.3481C92.0456 37.3481 91.9091 37.4826 91.9091 37.6469C91.9091 37.8113 92.0456 37.9457 92.2125 37.9457Z" fill="black" fill-opacity="0.5"/>
<path d="M97.388 30.2889C97.4501 30.2889 97.4967 30.2429 97.4967 30.1816C97.4967 30.1202 97.4501 30.0742 97.388 30.0742C97.3259 30.0742 97.2793 30.1202 97.2793 30.1816C97.2948 30.2429 97.3414 30.2889 97.388 30.2889Z" fill="black" fill-opacity="0.5"/>
<path d="M103.017 23.1598C103.095 23.1598 103.157 23.0985 103.157 23.0218C103.157 22.9451 103.095 22.8838 103.017 22.8838C102.939 22.8838 102.877 22.9451 102.877 23.0218C102.877 23.0985 102.939 23.1598 103.017 23.1598Z" fill="black" fill-opacity="0.5"/>
<path d="M142.369 262.744C143.826 262.744 145.024 261.578 145.024 260.129C145.024 258.68 143.841 257.515 142.369 257.515C140.897 257.515 139.714 258.68 139.714 260.129C139.714 261.578 140.913 262.744 142.369 262.744Z" fill="black" fill-opacity="0.5"/>
<path d="M134.464 258.354C136.042 258.354 137.317 257.099 137.317 255.545C137.317 253.991 136.042 252.736 134.464 252.736C132.887 252.736 131.612 253.991 131.612 255.545C131.597 257.084 132.887 258.354 134.464 258.354Z" fill="black" fill-opacity="0.5"/>
<path d="M126.818 252.993C128.214 252.993 129.336 251.887 129.336 250.513C129.336 249.138 128.214 248.033 126.818 248.033C125.422 248.033 124.299 249.138 124.299 250.513C124.299 251.887 125.437 252.993 126.818 252.993Z" fill="black" fill-opacity="0.5"/>
<path d="M119.49 247.684C120.962 247.684 122.145 246.519 122.145 245.07C122.145 243.621 120.962 242.456 119.49 242.456C118.019 242.456 116.835 243.621 116.835 245.07C116.835 246.519 118.019 247.684 119.49 247.684Z" fill="black" fill-opacity="0.5"/>
<path d="M112.466 242.012C114.024 242.012 115.287 240.768 115.287 239.233C115.287 237.699 114.024 236.455 112.466 236.455C110.907 236.455 109.644 237.699 109.644 239.233C109.644 240.768 110.907 242.012 112.466 242.012Z" fill="black" fill-opacity="0.5"/>
<path d="M105.79 235.915C107.398 235.915 108.718 234.63 108.718 233.032C108.718 231.433 107.398 230.148 105.79 230.148C104.167 230.148 102.862 231.433 102.862 233.032C102.862 234.63 104.182 235.915 105.79 235.915Z" fill="black" fill-opacity="0.5"/>
<path d="M99.4796 229.236C101.042 229.236 102.302 227.996 102.302 226.458C102.302 224.919 101.042 223.679 99.4796 223.679C97.9169 223.679 96.6577 224.919 96.6577 226.458C96.6577 227.981 97.9321 229.236 99.4796 229.236Z" fill="black" fill-opacity="0.5"/>
<path d="M93.5628 221.911C94.8979 221.911 95.975 220.851 95.975 219.536C95.975 218.221 94.8979 217.161 93.5628 217.161C92.2277 217.161 91.1505 218.221 91.1505 219.536C91.1505 220.851 92.2277 221.911 93.5628 221.911Z" fill="black" fill-opacity="0.5"/>
<path d="M88.0404 214.696C89.3755 214.696 90.4527 213.635 90.4527 212.321C90.4527 211.006 89.3755 209.945 88.0404 209.945C86.7053 209.945 85.6282 211.006 85.6282 212.321C85.6282 213.635 86.7053 214.696 88.0404 214.696Z" fill="black" fill-opacity="0.5"/>
<path d="M82.9422 207.141C84.2621 207.141 85.3241 206.096 85.3241 204.796C85.3241 203.496 84.2621 202.45 82.9422 202.45C81.6223 202.45 80.5603 203.496 80.5603 204.796C80.5603 206.096 81.6223 207.141 82.9422 207.141Z" fill="black" fill-opacity="0.5"/>
<path d="M78.2701 198.71C79.2259 198.71 80.0148 197.949 80.0148 197.007C80.0148 196.066 79.241 195.304 78.2701 195.304C77.3143 195.304 76.5405 196.066 76.5405 197.007C76.5405 197.949 77.3143 198.71 78.2701 198.71Z" fill="black" fill-opacity="0.5"/>
<path d="M74.0522 190.812C75.0839 190.812 75.9335 189.99 75.9335 188.974C75.9335 187.958 75.0991 187.137 74.0522 187.137C73.0054 187.137 72.1862 187.958 72.1862 188.974C72.1862 189.99 73.0206 190.812 74.0522 190.812Z" fill="black" fill-opacity="0.5"/>
<path d="M70.3046 182.559C71.3362 182.559 72.1707 181.738 72.1707 180.722C72.1707 179.706 71.3362 178.869 70.3046 178.869C69.2729 178.869 68.4385 179.691 68.4385 180.722C68.4385 181.738 69.2729 182.559 70.3046 182.559Z" fill="black" fill-opacity="0.5"/>
<path d="M67.028 173.746C67.8624 173.746 68.53 173.088 68.53 172.267C68.53 171.445 67.8624 170.788 67.028 170.788C66.2087 170.788 65.526 171.445 65.526 172.267C65.5412 173.073 66.2087 173.746 67.028 173.746Z" fill="black" fill-opacity="0.5"/>
<path d="M64.2362 165.264C65.1313 165.264 65.8747 164.547 65.8747 163.651C65.8747 162.769 65.1465 162.037 64.2362 162.037C63.3259 162.037 62.5977 162.754 62.5977 163.651C62.6128 164.547 63.3411 165.264 64.2362 165.264Z" fill="black" fill-opacity="0.5"/>
<path d="M61.9446 156.077C62.597 156.077 63.1432 155.554 63.1432 154.897C63.1432 154.24 62.6122 153.717 61.9446 153.717C61.2923 153.717 60.7461 154.24 60.7461 154.897C60.7461 155.554 61.2923 156.077 61.9446 156.077Z" fill="black" fill-opacity="0.5"/>
<path d="M60.1542 147.1C60.7611 147.1 61.2466 146.622 61.2466 146.024C61.2466 145.427 60.7611 144.949 60.1542 144.949C59.5474 144.949 59.0619 145.427 59.0619 146.024C59.0619 146.622 59.5474 147.1 60.1542 147.1Z" fill="black" fill-opacity="0.5"/>
<path d="M58.8649 138.18C59.4869 138.18 59.9876 137.687 59.9876 137.074C59.9876 136.462 59.4869 135.969 58.8649 135.969C58.2428 135.969 57.7422 136.462 57.7422 137.074C57.7422 137.687 58.2428 138.18 58.8649 138.18Z" fill="black" fill-opacity="0.5"/>
<path d="M58.1072 129.138C58.7141 129.138 59.1996 128.66 59.1996 128.062C59.1996 127.464 58.7141 126.986 58.1072 126.986C57.5004 126.986 57.0149 127.464 57.0149 128.062C57.0149 128.645 57.5004 129.138 58.1072 129.138Z" fill="black" fill-opacity="0.5"/>
<path d="M57.8485 120.131C58.4705 120.131 58.9712 119.638 58.9712 119.026C58.9712 118.413 58.4705 117.92 57.8485 117.92C57.2265 117.92 56.7258 118.413 56.7258 119.026C56.7258 119.638 57.2265 120.131 57.8485 120.131Z" fill="black" fill-opacity="0.5"/>
<path d="M58.1065 110.826C58.5768 110.826 58.9561 110.452 58.9561 109.989C58.9561 109.526 58.5768 109.152 58.1065 109.152C57.6362 109.152 57.2569 109.526 57.2569 109.989C57.2417 110.452 57.6362 110.826 58.1065 110.826Z" fill="black" fill-opacity="0.5"/>
<path d="M58.8652 101.812C59.3355 101.812 59.7148 101.439 59.7148 100.976C59.7148 100.513 59.3355 100.139 58.8652 100.139C58.3949 100.139 58.0156 100.513 58.0156 100.976C58.0156 101.439 58.3949 101.812 58.8652 101.812Z" fill="black" fill-opacity="0.5"/>
<path d="M60.155 92.8496C60.6253 92.8496 61.0046 92.4761 61.0046 92.0129C61.0046 91.5498 60.6253 91.1763 60.155 91.1763C59.6847 91.1763 59.3054 91.5498 59.3054 92.0129C59.3054 92.4761 59.6847 92.8496 60.155 92.8496Z" fill="black" fill-opacity="0.5"/>
<path d="M61.9446 83.7376C62.2798 83.7376 62.5515 83.4701 62.5515 83.1401C62.5515 82.81 62.2798 82.5425 61.9446 82.5425C61.6095 82.5425 61.3378 82.81 61.3378 83.1401C61.3378 83.4701 61.6095 83.7376 61.9446 83.7376Z" fill="black" fill-opacity="0.5"/>
<path d="M64.2358 75.1335C64.6455 75.1335 64.9792 74.8048 64.9792 74.4015C64.9792 73.9981 64.6455 73.6694 64.2358 73.6694C63.8262 73.6694 63.4924 73.9981 63.4924 74.4015C63.4924 74.8048 63.8262 75.1335 64.2358 75.1335Z" fill="black" fill-opacity="0.5"/>
<path d="M67.0275 66.2117C67.2702 66.2117 67.4675 66.0175 67.4675 65.7785C67.4675 65.5394 67.2702 65.3452 67.0275 65.3452C66.7848 65.3452 66.5875 65.5394 66.5875 65.7785C66.5875 66.0175 66.7848 66.2117 67.0275 66.2117Z" fill="black" fill-opacity="0.5"/>
<path d="M70.3044 57.6486C70.5016 57.6486 70.6381 57.4992 70.6381 57.3199C70.6381 57.1406 70.4864 56.9912 70.3044 56.9912C70.1223 56.9912 69.9706 57.1406 69.9706 57.3199C69.9706 57.4992 70.1223 57.6486 70.3044 57.6486Z" fill="black" fill-opacity="0.5"/>
<path d="M74.0515 49.514C74.2943 49.514 74.4915 49.3197 74.4915 49.0807C74.4915 48.8417 74.2943 48.6475 74.0515 48.6475C73.8088 48.6475 73.6116 48.8417 73.6116 49.0807C73.6116 49.3048 73.8088 49.514 74.0515 49.514Z" fill="black" fill-opacity="0.5"/>
<path d="M78.2691 41.4749C78.5118 41.4749 78.709 41.2807 78.709 41.0416C78.709 40.8026 78.5118 40.6084 78.2691 40.6084C78.0263 40.6084 77.8291 40.8026 77.8291 41.0416C77.8291 41.2807 78.0263 41.4749 78.2691 41.4749Z" fill="black" fill-opacity="0.5"/>
<path d="M82.9461 33.381C83.0237 33.381 83.0858 33.3196 83.0858 33.243C83.0858 33.1663 83.0237 33.105 82.9461 33.105C82.8684 33.105 82.8063 33.1663 82.8063 33.243C82.8063 33.3196 82.8684 33.381 82.9461 33.381Z" fill="black" fill-opacity="0.5"/>
<path d="M88.0414 25.7587C88.0575 25.7587 88.0736 25.7427 88.0736 25.7267C88.0736 25.7108 88.0575 25.6948 88.0414 25.6948C88.0253 25.6948 88.0092 25.7108 88.0092 25.7267C88.0092 25.7427 88.0253 25.7587 88.0414 25.7587Z" fill="black" fill-opacity="0.5"/>
<path d="M139.941 273.08C141.504 273.08 142.763 271.84 142.763 270.301C142.763 268.762 141.504 267.522 139.941 267.522C138.378 267.522 137.119 268.762 137.119 270.301C137.119 271.825 138.378 273.08 139.941 273.08Z" fill="black" fill-opacity="0.5"/>
<path d="M131.946 269.062C133.752 269.062 135.208 267.628 135.208 265.85C135.208 264.073 133.752 262.624 131.946 262.624C130.141 262.624 128.684 264.058 128.684 265.85C128.684 267.613 130.141 269.062 131.946 269.062Z" fill="black" fill-opacity="0.5"/>
<path d="M124.209 264C125.908 264 127.273 262.655 127.273 260.982C127.273 259.309 125.908 257.964 124.209 257.964C122.51 257.964 121.144 259.309 121.144 260.982C121.144 262.655 122.51 264 124.209 264Z" fill="black" fill-opacity="0.5"/>
<path d="M116.729 258.738C118.428 258.738 119.793 257.394 119.793 255.72C119.793 254.047 118.428 252.703 116.729 252.703C115.03 252.703 113.664 254.047 113.664 255.72C113.664 257.379 115.045 258.738 116.729 258.738Z" fill="black" fill-opacity="0.5"/>
<path d="M109.553 252.793C111.07 252.793 112.314 251.582 112.314 250.074C112.314 248.58 111.085 247.354 109.553 247.354C108.021 247.354 106.792 248.565 106.792 250.074C106.792 251.582 108.036 252.793 109.553 252.793Z" fill="black" fill-opacity="0.5"/>
<path d="M102.68 246.966C104.304 246.966 105.608 245.682 105.608 244.083C105.608 242.485 104.304 241.2 102.68 241.2C101.057 241.2 99.7523 242.485 99.7523 244.083C99.7523 245.667 101.072 246.966 102.68 246.966Z" fill="black" fill-opacity="0.5"/>
<path d="M96.1567 240.6C97.7801 240.6 99.0848 239.315 99.0848 237.716C99.0848 236.118 97.7801 234.833 96.1567 234.833C94.5486 234.833 93.2286 236.118 93.2286 237.716C93.2286 239.315 94.5334 240.6 96.1567 240.6Z" fill="black" fill-opacity="0.5"/>
<path d="M89.9673 233.627C91.4238 233.627 92.592 232.476 92.592 231.042C92.592 229.608 91.4238 228.458 89.9673 228.458C88.5109 228.458 87.3427 229.608 87.3427 231.042C87.3427 232.461 88.5109 233.627 89.9673 233.627Z" fill="black" fill-opacity="0.5"/>
<path d="M84.1402 226.907C85.7332 226.907 87.0379 225.637 87.0379 224.054C87.0379 222.485 85.7332 221.2 84.1402 221.2C82.5472 221.2 81.2424 222.47 81.2424 224.054C81.2424 225.622 82.5472 226.907 84.1402 226.907Z" fill="black" fill-opacity="0.5"/>
<path d="M78.7096 219.243C80.1054 219.243 81.2281 218.137 81.2281 216.763C81.2281 215.388 80.1054 214.283 78.7096 214.283C77.3138 214.283 76.1912 215.388 76.1912 216.763C76.1912 218.137 77.3138 219.243 78.7096 219.243Z" fill="black" fill-opacity="0.5"/>
<path d="M73.6573 211.379C74.8862 211.379 75.8723 210.408 75.8723 209.198C75.8723 207.988 74.8862 207.017 73.6573 207.017C72.4436 207.017 71.4423 207.988 71.4423 209.198C71.4574 210.393 72.4436 211.379 73.6573 211.379Z" fill="black" fill-opacity="0.5"/>
<path d="M69.0449 203.569C70.2586 203.569 71.2599 202.598 71.2599 201.388C71.2599 200.178 70.2738 199.207 69.0449 199.207C67.816 199.207 66.8298 200.178 66.8298 201.388C66.8298 202.583 67.816 203.569 69.0449 203.569Z" fill="black" fill-opacity="0.5"/>
<path d="M64.8428 194.89C65.7076 194.89 66.4055 194.203 66.4055 193.351C66.4055 192.5 65.7076 191.812 64.8428 191.812C63.978 191.812 63.2801 192.5 63.2801 193.351C63.265 194.203 63.978 194.89 64.8428 194.89Z" fill="black" fill-opacity="0.5"/>
<path d="M61.0648 186.774C62.0054 186.774 62.764 186.027 62.764 185.1C62.764 184.174 62.0054 183.427 61.0648 183.427C60.1242 183.427 59.3656 184.174 59.3656 185.1C59.3656 186.027 60.1242 186.774 61.0648 186.774Z" fill="black" fill-opacity="0.5"/>
<path d="M57.7574 177.928C58.4705 177.928 59.047 177.36 59.047 176.658C59.047 175.956 58.4705 175.388 57.7574 175.388C57.0443 175.388 56.4678 175.956 56.4678 176.658C56.4526 177.36 57.0443 177.928 57.7574 177.928Z" fill="black" fill-opacity="0.5"/>
<path d="M54.8905 169.102C55.467 169.102 55.9525 168.639 55.9525 168.057C55.9525 167.489 55.4822 167.026 54.8905 167.026C54.314 167.026 53.8285 167.489 53.8285 168.057C53.8437 168.639 54.314 169.102 54.8905 169.102Z" fill="black" fill-opacity="0.5"/>
<path d="M52.4929 160.185C52.9632 160.185 53.3425 159.811 53.3425 159.348C53.3425 158.885 52.9632 158.512 52.4929 158.512C52.0226 158.512 51.6433 158.885 51.6433 159.348C51.6433 159.797 52.0226 160.185 52.4929 160.185Z" fill="black" fill-opacity="0.5"/>
<path d="M50.566 151.34C51.0363 151.34 51.4156 150.966 51.4156 150.503C51.4156 150.04 51.0363 149.667 50.566 149.667C50.0957 149.667 49.7164 150.04 49.7164 150.503C49.7164 150.966 50.0957 151.34 50.566 151.34Z" fill="black" fill-opacity="0.5"/>
<path d="M49.1254 142.734C49.7778 142.734 50.324 142.212 50.324 141.554C50.324 140.897 49.793 140.374 49.1254 140.374C48.4731 140.374 47.9269 140.897 47.9269 141.554C47.9269 142.212 48.4731 142.734 49.1254 142.734Z" fill="black" fill-opacity="0.5"/>
<path d="M48.1542 133.514C48.6852 133.514 49.11 133.095 49.11 132.573C49.11 132.05 48.6852 131.631 48.1542 131.631C47.6232 131.631 47.1984 132.05 47.1984 132.573C47.1984 133.08 47.6232 133.514 48.1542 133.514Z" fill="black" fill-opacity="0.5"/>
<path d="M47.6687 124.375C48.139 124.375 48.5183 124.001 48.5183 123.538C48.5183 123.075 48.139 122.702 47.6687 122.702C47.1984 122.702 46.8191 123.075 46.8191 123.538C46.8191 124.001 47.1984 124.375 47.6687 124.375Z" fill="black" fill-opacity="0.5"/>
<path d="M47.6686 115.368C48.1541 115.368 48.5486 114.98 48.5486 114.502C48.5486 114.024 48.1541 113.635 47.6686 113.635C47.1832 113.635 46.7887 114.024 46.7887 114.502C46.7887 114.98 47.1832 115.368 47.6686 115.368Z" fill="black" fill-opacity="0.5"/>
<path d="M48.154 106.208C48.5637 106.208 48.8974 105.879 48.8974 105.475C48.8974 105.072 48.5637 104.729 48.154 104.729C47.7444 104.729 47.4106 105.057 47.4106 105.475C47.4106 105.879 47.7444 106.208 48.154 106.208Z" fill="black" fill-opacity="0.5"/>
<path d="M49.1248 97.4534C49.6694 97.4534 50.111 97.0186 50.111 96.4823C50.111 95.946 49.6694 95.5112 49.1248 95.5112C48.5802 95.5112 48.1387 95.946 48.1387 96.4823C48.1387 97.0186 48.5802 97.4534 49.1248 97.4534Z" fill="black" fill-opacity="0.5"/>
<path d="M50.566 88.3057C51.006 88.3057 51.3549 87.9621 51.3549 87.5288C51.3549 87.0956 51.006 86.752 50.566 86.752C50.1412 86.752 49.7771 87.0956 49.7771 87.5288C49.7923 87.9621 50.1412 88.3057 50.566 88.3057Z" fill="black" fill-opacity="0.5"/>
<path d="M52.4928 79.2122C52.7658 79.2122 52.9934 78.9881 52.9934 78.7042C52.9934 78.4204 52.7658 78.1963 52.4928 78.1963C52.2045 78.1963 51.9769 78.4204 51.9769 78.7042C51.9921 78.9881 52.2197 79.2122 52.4928 79.2122Z" fill="black" fill-opacity="0.5"/>
<path d="M54.8911 70.4676C55.1793 70.4676 55.4069 70.2435 55.4069 69.9596C55.4069 69.6758 55.1793 69.4517 54.8911 69.4517C54.6028 69.4517 54.3752 69.6758 54.3752 69.9596C54.3904 70.2435 54.618 70.4676 54.8911 70.4676Z" fill="black" fill-opacity="0.5"/>
<path d="M57.7578 61.8782C58.046 61.8782 58.2736 61.6541 58.2736 61.3703C58.2736 61.0864 58.046 60.8623 57.7578 60.8623C57.4695 60.8623 57.2419 61.0864 57.2419 61.3703C57.2419 61.6541 57.4695 61.8782 57.7578 61.8782Z" fill="black" fill-opacity="0.5"/>
<path d="M61.0656 53.1817C61.2022 53.1817 61.3084 53.0771 61.3084 52.9426C61.3084 52.8082 61.2022 52.7036 61.0656 52.7036C60.9291 52.7036 60.8229 52.8082 60.8229 52.9426C60.838 53.0771 60.9442 53.1817 61.0656 53.1817Z" fill="black" fill-opacity="0.5"/>
<path d="M145.812 287.599C147.633 287.599 149.12 286.135 149.12 284.342C149.12 282.55 147.648 281.085 145.812 281.085C143.992 281.085 142.505 282.535 142.505 284.342C142.505 286.15 143.992 287.599 145.812 287.599Z" fill="black" fill-opacity="0.5"/>
<path d="M137.545 283.512C139.274 283.512 140.67 282.138 140.67 280.42C140.67 278.717 139.274 277.342 137.545 277.342C135.815 277.342 134.419 278.717 134.419 280.42C134.404 282.123 135.8 283.512 137.545 283.512Z" fill="black" fill-opacity="0.5"/>
<path d="M129.473 279.358C131.293 279.358 132.78 277.894 132.78 276.102C132.78 274.309 131.309 272.845 129.473 272.845C127.652 272.845 126.166 274.294 126.166 276.102C126.166 277.894 127.652 279.358 129.473 279.358Z" fill="black" fill-opacity="0.5"/>
<path d="M121.63 274.665C123.465 274.665 124.967 273.186 124.967 271.378C124.967 269.57 123.481 268.091 121.63 268.091C119.794 268.091 118.292 269.57 118.292 271.378C118.292 273.201 119.794 274.665 121.63 274.665Z" fill="black" fill-opacity="0.5"/>
<path d="M114.044 269.38C115.773 269.38 117.184 268.005 117.184 266.287C117.184 264.584 115.773 263.209 114.044 263.209C112.314 263.209 110.918 264.584 110.918 266.287C110.918 267.99 112.314 269.38 114.044 269.38Z" fill="black" fill-opacity="0.5"/>
<path d="M106.731 263.803C108.4 263.803 109.766 262.474 109.766 260.816C109.766 259.172 108.415 257.828 106.731 257.828C105.062 257.828 103.697 259.172 103.697 260.816C103.697 262.474 105.047 263.803 106.731 263.803Z" fill="black" fill-opacity="0.5"/>
<path d="M99.692 258.099C101.422 258.099 102.832 256.725 102.832 255.021C102.832 253.318 101.422 251.944 99.692 251.944C97.9624 251.944 96.5666 253.318 96.5666 255.021C96.5515 256.725 97.9624 258.099 99.692 258.099Z" fill="black" fill-opacity="0.5"/>
<path d="M92.9556 251.719C94.5486 251.719 95.8533 250.449 95.8533 248.865C95.8533 247.297 94.5638 246.012 92.9556 246.012C91.3626 246.012 90.0579 247.282 90.0579 248.865C90.073 250.434 91.3626 251.719 92.9556 251.719Z" fill="black" fill-opacity="0.5"/>
<path d="M86.5378 245.235C88.1308 245.235 89.4355 243.965 89.4355 242.381C89.4355 240.813 88.1308 239.528 86.5378 239.528C84.9448 239.528 83.64 240.798 83.64 242.381C83.6552 243.965 84.9448 245.235 86.5378 245.235Z" fill="black" fill-opacity="0.5"/>
<path d="M80.4689 238.627C82.1681 238.627 83.5336 237.282 83.5336 235.609C83.5336 233.936 82.1681 232.591 80.4689 232.591C78.7697 232.591 77.4043 233.936 77.4043 235.609C77.4043 237.267 78.7697 238.627 80.4689 238.627Z" fill="black" fill-opacity="0.5"/>
<path d="M74.7488 231.656C76.4936 231.656 77.9197 230.267 77.9197 228.534C77.9197 226.816 76.4936 225.412 74.7488 225.412C73.0041 225.412 71.578 226.801 71.578 228.534C71.578 230.267 72.989 231.656 74.7488 231.656Z" fill="black" fill-opacity="0.5"/>
<path d="M69.3791 224.321C71.1238 224.321 72.55 222.917 72.55 221.199C72.55 219.481 71.139 218.077 69.3791 218.077C67.6344 218.077 66.2083 219.481 66.2083 221.199C66.2083 222.917 67.6344 224.321 69.3791 224.321Z" fill="black" fill-opacity="0.5"/>
<path d="M64.403 216.209C65.8747 216.209 67.058 215.044 67.058 213.595C67.058 212.146 65.8595 210.98 64.403 210.98C62.9466 210.98 61.748 212.146 61.748 213.595C61.748 215.044 62.9314 216.209 64.403 216.209Z" fill="black" fill-opacity="0.5"/>
<path d="M59.8059 208.274C61.2168 208.274 62.3547 207.154 62.3547 205.764C62.3547 204.375 61.2168 203.254 59.8059 203.254C58.3949 203.254 57.2571 204.375 57.2571 205.764C57.2571 207.154 58.3949 208.274 59.8059 208.274Z" fill="black" fill-opacity="0.5"/>
<path d="M55.6188 199.264C56.4836 199.264 57.1815 198.577 57.1815 197.725C57.1815 196.874 56.4836 196.187 55.6188 196.187C54.754 196.187 54.0562 196.874 54.0562 197.725C54.0562 198.562 54.754 199.264 55.6188 199.264Z" fill="black" fill-opacity="0.5"/>
<path d="M51.8403 190.777C52.5686 190.777 53.1754 190.194 53.1754 189.462C53.1754 188.745 52.5837 188.147 51.8403 188.147C51.1121 188.147 50.5052 188.73 50.5052 189.462C50.5052 190.194 51.1121 190.777 51.8403 190.777Z" fill="black" fill-opacity="0.5"/>
<path d="M48.4884 182.372C49.2257 182.372 49.8235 181.784 49.8235 181.057C49.8235 180.331 49.2257 179.743 48.4884 179.743C47.7511 179.743 47.1533 180.331 47.1533 181.057C47.1533 181.784 47.7511 182.372 48.4884 182.372Z" fill="black" fill-opacity="0.5"/>
<path d="M45.5599 173.792C46.2882 173.792 46.895 173.209 46.895 172.477C46.895 171.76 46.3033 171.162 45.5599 171.162C44.8317 171.162 44.2249 171.745 44.2249 172.477C44.2249 173.209 44.8317 173.792 45.5599 173.792Z" fill="black" fill-opacity="0.5"/>
<path d="M43.0722 164.948C43.7246 164.948 44.2707 164.425 44.2707 163.768C44.2707 163.125 43.7397 162.587 43.0722 162.587C42.4047 162.587 41.8737 163.11 41.8737 163.768C41.8888 164.425 42.4198 164.948 43.0722 164.948Z" fill="black" fill-opacity="0.5"/>
<path d="M41.0238 156.003C41.6003 156.003 42.0858 155.54 42.0858 154.957C42.0858 154.39 41.6155 153.912 41.0238 153.912C40.4473 153.912 39.9618 154.375 39.9618 154.957C39.977 155.54 40.4473 156.003 41.0238 156.003Z" fill="black" fill-opacity="0.5"/>
<path d="M39.431 146.826C39.8667 146.826 40.2199 146.478 40.2199 146.049C40.2199 145.62 39.8667 145.272 39.431 145.272C38.9953 145.272 38.6421 145.62 38.6421 146.049C38.6421 146.478 38.9953 146.826 39.431 146.826Z" fill="black" fill-opacity="0.5"/>
<path d="M38.292 137.922C38.7623 137.922 39.1416 137.548 39.1416 137.085C39.1416 136.622 38.7623 136.249 38.292 136.249C37.8217 136.249 37.4424 136.622 37.4424 137.085C37.4424 137.548 37.8217 137.922 38.292 137.922Z" fill="black" fill-opacity="0.5"/>
<path d="M37.6098 128.839C38.0455 128.839 38.3987 128.491 38.3987 128.062C38.3987 127.633 38.0455 127.285 37.6098 127.285C37.1741 127.285 36.8209 127.633 36.8209 128.062C36.8209 128.491 37.1741 128.839 37.6098 128.839Z" fill="black" fill-opacity="0.5"/>
<path d="M37.3822 119.759C37.7918 119.759 38.1256 119.43 38.1256 119.026C38.1256 118.623 37.7918 118.294 37.3822 118.294C36.9726 118.294 36.6388 118.623 36.6388 119.026C36.6236 119.43 36.9726 119.759 37.3822 119.759Z" fill="black" fill-opacity="0.5"/>
<path d="M37.6103 110.685C38.0047 110.685 38.3233 110.371 38.3233 109.983C38.3233 109.594 38.0047 109.281 37.6103 109.281C37.2158 109.281 36.8972 109.594 36.8972 109.983C36.8972 110.371 37.2158 110.685 37.6103 110.685Z" fill="black" fill-opacity="0.5"/>
<path d="M38.2924 101.663C38.6869 101.663 39.0055 101.349 39.0055 100.961C39.0055 100.573 38.6869 100.259 38.2924 100.259C37.8979 100.259 37.5793 100.573 37.5793 100.961C37.5793 101.349 37.8979 101.663 38.2924 101.663Z" fill="black" fill-opacity="0.5"/>
<path d="M39.4305 92.5814C39.7656 92.5814 40.0373 92.3138 40.0373 91.9838C40.0373 91.6538 39.7656 91.3862 39.4305 91.3862C39.0953 91.3862 38.8236 91.6538 38.8236 91.9838C38.8236 92.3138 39.0953 92.5814 39.4305 92.5814Z" fill="black" fill-opacity="0.5"/>
<path d="M41.0238 83.3774C41.1907 83.3774 41.3272 83.2429 41.3272 83.0786C41.3272 82.9142 41.1907 82.7798 41.0238 82.7798C40.8569 82.7798 40.7203 82.9142 40.7203 83.0786C40.7203 83.2429 40.8569 83.3774 41.0238 83.3774Z" fill="black" fill-opacity="0.5"/>
<path d="M45.5615 65.6019C45.5776 65.6019 45.5937 65.586 45.5937 65.57C45.5937 65.5541 45.5776 65.5381 45.5615 65.5381C45.5454 65.5381 45.5293 65.5541 45.5293 65.57C45.5293 65.586 45.5454 65.6019 45.5615 65.6019Z" fill="black" fill-opacity="0.5"/>
<path d="M143.461 297.675C145.327 297.675 146.829 296.196 146.829 294.359C146.829 292.521 145.312 291.042 143.461 291.042C141.595 291.042 140.093 292.521 140.093 294.359C140.093 296.181 141.61 297.675 143.461 297.675Z" fill="black" fill-opacity="0.5"/>
<path d="M135.147 293.773C136.968 293.773 138.454 292.324 138.454 290.516C138.454 288.708 136.983 287.259 135.147 287.259C133.311 287.259 131.84 288.708 131.84 290.516C131.84 292.324 133.327 293.773 135.147 293.773Z" fill="black" fill-opacity="0.5"/>
<path d="M127.015 289.561C128.836 289.561 130.323 288.112 130.323 286.304C130.323 284.511 128.851 283.047 127.015 283.047C125.195 283.047 123.708 284.511 123.708 286.304C123.708 288.112 125.195 289.561 127.015 289.561Z" fill="black" fill-opacity="0.5"/>
<path d="M119.095 284.886C120.855 284.886 122.297 283.482 122.297 281.734C122.297 279.986 120.855 278.582 119.095 278.582C117.32 278.582 115.894 280.001 115.894 281.734C115.894 283.467 117.335 284.886 119.095 284.886Z" fill="black" fill-opacity="0.5"/>
<path d="M111.419 280.029C113.24 280.029 114.726 278.58 114.726 276.772C114.726 274.979 113.255 273.515 111.419 273.515C109.598 273.515 108.112 274.964 108.112 276.772C108.112 278.58 109.583 280.029 111.419 280.029Z" fill="black" fill-opacity="0.5"/>
<path d="M103.97 274.698C105.775 274.698 107.232 273.264 107.232 271.471C107.232 269.693 105.775 268.259 103.97 268.259C102.164 268.259 100.708 269.693 100.708 271.471C100.708 273.264 102.164 274.698 103.97 274.698Z" fill="black" fill-opacity="0.5"/>
<path d="M96.7935 269.032C98.5838 269.032 100.025 267.613 100.025 265.85C100.025 264.087 98.5686 262.667 96.7935 262.667C95.0033 262.667 93.562 264.102 93.562 265.85C93.562 267.598 95.0033 269.032 96.7935 269.032Z" fill="black" fill-opacity="0.5"/>
<path d="M89.8906 263.03C91.6505 263.03 93.0918 261.61 93.0918 259.877C93.0918 258.144 91.6505 256.725 89.8906 256.725C88.1156 256.725 86.6895 258.129 86.6895 259.877C86.6895 261.625 88.1156 263.03 89.8906 263.03Z" fill="black" fill-opacity="0.5"/>
<path d="M83.2763 256.816C85.0777 256.816 86.5381 255.378 86.5381 253.604C86.5381 251.83 85.0777 250.392 83.2763 250.392C81.4748 250.392 80.0144 251.83 80.0144 253.604C80.0144 255.378 81.4748 256.816 83.2763 256.816Z" fill="black" fill-opacity="0.5"/>
<path d="M76.9797 250.135C78.7309 250.135 80.1505 248.737 80.1505 247.013C80.1505 245.289 78.7309 243.891 76.9797 243.891C75.2285 243.891 73.8088 245.289 73.8088 247.013C73.8088 248.737 75.2285 250.135 76.9797 250.135Z" fill="black" fill-opacity="0.5"/>
<path d="M71.0022 243.37C72.8037 243.37 74.2641 241.932 74.2641 240.158C74.2641 238.384 72.8037 236.946 71.0022 236.946C69.2007 236.946 67.7404 238.384 67.7404 240.158C67.7404 241.932 69.2007 243.37 71.0022 243.37Z" fill="black" fill-opacity="0.5"/>
<path d="M65.3589 236.363C67.2401 236.363 68.7573 234.869 68.7573 233.001C68.7573 231.149 67.2401 229.655 65.3589 229.655C63.4776 229.655 61.9604 231.149 61.9604 233.001C61.9604 234.869 63.4776 236.363 65.3589 236.363Z" fill="black" fill-opacity="0.5"/>
<path d="M60.064 228.743C61.8087 228.743 63.2348 227.338 63.2348 225.62C63.2348 223.902 61.8087 222.498 60.064 222.498C58.3193 222.498 56.8932 223.887 56.8932 225.62C56.9084 227.338 58.3193 228.743 60.064 228.743Z" fill="black" fill-opacity="0.5"/>
<path d="M55.1326 220.298C56.4373 220.298 57.4842 219.253 57.4842 217.983C57.4842 216.713 56.4373 215.667 55.1326 215.667C53.8278 215.667 52.781 216.698 52.781 217.983C52.781 219.267 53.843 220.298 55.1326 220.298Z" fill="black" fill-opacity="0.5"/>
<path d="M50.5817 211.98C51.6134 211.98 52.4478 211.158 52.4478 210.142C52.4478 209.126 51.6134 208.29 50.5817 208.29C49.55 208.29 48.7004 209.111 48.7004 210.142C48.7004 211.158 49.55 211.98 50.5817 211.98Z" fill="black" fill-opacity="0.5"/>
<path d="M46.3942 203.924C47.4258 203.924 48.2602 203.103 48.2602 202.072C48.2602 201.056 47.4258 200.234 46.3942 200.234C45.3625 200.234 44.5281 201.056 44.5281 202.072C44.5281 203.103 45.3625 203.924 46.3942 203.924Z" fill="black" fill-opacity="0.5"/>
<path d="M42.6171 195.157C43.3544 195.157 43.9522 194.568 43.9522 193.842C43.9522 193.116 43.3544 192.527 42.6171 192.527C41.8797 192.527 41.282 193.116 41.282 193.842C41.282 194.568 41.8797 195.157 42.6171 195.157Z" fill="black" fill-opacity="0.5"/>
<path d="M39.2178 186.715C39.9309 186.715 40.5074 186.147 40.5074 185.445C40.5074 184.743 39.9309 184.175 39.2178 184.175C38.5047 184.175 37.9282 184.743 37.9282 185.445C37.9282 186.147 38.5047 186.715 39.2178 186.715Z" fill="black" fill-opacity="0.5"/>
<path d="M36.2448 178.064C36.8972 178.064 37.4434 177.541 37.4434 176.884C37.4434 176.241 36.9124 175.704 36.2448 175.704C35.5773 175.704 35.0463 176.227 35.0463 176.884C35.0463 177.541 35.5773 178.064 36.2448 178.064Z" fill="black" fill-opacity="0.5"/>
<path d="M33.6655 169.473C34.3786 169.473 34.9551 168.906 34.9551 168.203C34.9551 167.501 34.3786 166.934 33.6655 166.934C32.9525 166.934 32.376 167.501 32.376 168.203C32.376 168.906 32.9525 169.473 33.6655 169.473Z" fill="black" fill-opacity="0.5"/>
<path d="M31.5262 160.585C32.1937 160.585 32.7247 160.062 32.7247 159.405C32.7247 158.762 32.1937 158.225 31.5262 158.225C30.8738 158.225 30.3276 158.747 30.3276 159.405C30.3276 160.062 30.8586 160.585 31.5262 160.585Z" fill="black" fill-opacity="0.5"/>
<path d="M29.7969 151.714C30.4645 151.714 30.9955 151.191 30.9955 150.534C30.9955 149.891 30.4645 149.354 29.7969 149.354C29.1446 149.354 28.5984 149.876 28.5984 150.534C28.5984 151.176 29.1446 151.714 29.7969 151.714Z" fill="black" fill-opacity="0.5"/>
<path d="M28.5078 142.659C29.1146 142.659 29.6001 142.181 29.6001 141.583C29.6001 140.986 29.1146 140.508 28.5078 140.508C27.9009 140.508 27.4154 140.986 27.4154 141.583C27.4154 142.166 27.9009 142.659 28.5078 142.659Z" fill="black" fill-opacity="0.5"/>
<path d="M27.6274 133.654C28.2342 133.654 28.7197 133.176 28.7197 132.579C28.7197 131.981 28.2342 131.503 27.6274 131.503C27.0205 131.503 26.535 131.981 26.535 132.579C26.5502 133.176 27.0357 133.654 27.6274 133.654Z" fill="black" fill-opacity="0.5"/>
<path d="M27.2026 124.251C27.597 124.251 27.9156 123.937 27.9156 123.549C27.9156 123.16 27.597 122.847 27.2026 122.847C26.8081 122.847 26.4895 123.16 26.4895 123.549C26.4895 123.922 26.8081 124.251 27.2026 124.251Z" fill="black" fill-opacity="0.5"/>
<path d="M27.202 115.093C27.5358 115.093 27.8089 114.824 27.8089 114.496C27.8089 114.167 27.5358 113.898 27.202 113.898C26.8683 113.898 26.5952 114.167 26.5952 114.496C26.58 114.824 26.8683 115.093 27.202 115.093Z" fill="black" fill-opacity="0.5"/>
<path d="M27.6267 105.77C27.7936 105.77 27.9301 105.635 27.9301 105.471C27.9301 105.307 27.7936 105.172 27.6267 105.172C27.4598 105.172 27.3232 105.307 27.3232 105.471C27.3232 105.635 27.4598 105.77 27.6267 105.77Z" fill="black" fill-opacity="0.5"/>
<path d="M28.51 96.5604C28.5721 96.5604 28.6187 96.5144 28.6187 96.453C28.6187 96.3917 28.5721 96.3457 28.51 96.3457C28.4478 96.3457 28.4012 96.3917 28.4012 96.453C28.4012 96.5144 28.4478 96.5604 28.51 96.5604Z" fill="black" fill-opacity="0.5"/>
<path d="M141.14 307.818C143.092 307.818 144.675 306.26 144.675 304.337C144.675 302.415 143.092 300.856 141.14 300.856C139.188 300.856 137.605 302.415 137.605 304.337C137.605 306.26 139.188 307.818 141.14 307.818Z" fill="black" fill-opacity="0.5"/>
<path d="M132.765 303.9C134.631 303.9 136.133 302.421 136.133 300.583C136.133 298.746 134.631 297.267 132.765 297.267C130.899 297.267 129.397 298.761 129.397 300.583C129.397 302.421 130.914 303.9 132.765 303.9Z" fill="black" fill-opacity="0.5"/>
<path d="M124.588 299.408C126.226 299.408 127.546 298.109 127.546 296.495C127.546 294.882 126.226 293.582 124.588 293.582C122.949 293.582 121.629 294.882 121.629 296.495C121.629 298.094 122.949 299.408 124.588 299.408Z" fill="black" fill-opacity="0.5"/>
<path d="M116.592 294.943C118.231 294.943 119.566 293.628 119.566 292.029C119.566 290.416 118.231 289.116 116.592 289.116C114.954 289.116 113.634 290.416 113.634 292.029C113.634 293.643 114.969 294.943 116.592 294.943Z" fill="black" fill-opacity="0.5"/>
<path d="M108.825 290.371C110.584 290.371 112.026 288.952 112.026 287.219C112.026 285.471 110.584 284.066 108.825 284.066C107.065 284.066 105.623 285.471 105.623 287.219C105.623 288.952 107.05 290.371 108.825 290.371Z" fill="black" fill-opacity="0.5"/>
<path d="M101.27 285.316C103.09 285.316 104.577 283.867 104.577 282.059C104.577 280.266 103.105 278.802 101.27 278.802C99.4491 278.802 97.9623 280.251 97.9623 282.059C97.9623 283.852 99.4491 285.316 101.27 285.316Z" fill="black" fill-opacity="0.5"/>
<path d="M93.9714 279.894C95.8375 279.894 97.3395 278.415 97.3395 276.578C97.3395 274.74 95.8375 273.261 93.9714 273.261C92.1053 273.261 90.6034 274.74 90.6034 276.578C90.5882 278.415 92.1053 279.894 93.9714 279.894Z" fill="black" fill-opacity="0.5"/>
<path d="M86.9176 274.113C88.7837 274.113 90.2857 272.619 90.2857 270.797C90.2857 268.959 88.7685 267.48 86.9176 267.48C85.0515 267.48 83.5496 268.974 83.5496 270.797C83.5496 272.619 85.0515 274.113 86.9176 274.113Z" fill="black" fill-opacity="0.5"/>
<path d="M80.1353 268.109C82.062 268.109 83.6095 266.57 83.6095 264.688C83.6095 262.805 82.062 261.267 80.1353 261.267C78.2237 261.267 76.661 262.805 76.661 264.688C76.661 266.57 78.2237 268.109 80.1353 268.109Z" fill="black" fill-opacity="0.5"/>
<path d="M73.6425 261.576C75.4859 261.576 76.9802 260.104 76.9802 258.289C76.9802 256.474 75.4859 255.002 73.6425 255.002C71.7992 255.002 70.3048 256.474 70.3048 258.289C70.3048 260.104 71.7992 261.576 73.6425 261.576Z" fill="black" fill-opacity="0.5"/>
<path d="M67.4521 254.902C69.2878 254.902 70.7898 253.438 70.7898 251.615C70.7898 249.793 69.303 248.329 67.4521 248.329C65.6164 248.329 64.1144 249.793 64.1144 251.615C64.1144 253.423 65.6012 254.902 67.4521 254.902Z" fill="black" fill-opacity="0.5"/>
<path d="M61.5652 247.925C63.3858 247.925 64.8726 246.461 64.8726 244.668C64.8726 242.876 63.4009 241.412 61.5652 241.412C59.7446 241.412 58.2578 242.861 58.2578 244.668C58.2578 246.461 59.7446 247.925 61.5652 247.925Z" fill="black" fill-opacity="0.5"/>
<path d="M55.9975 240.828C57.8788 240.828 59.4111 239.335 59.4111 237.467C59.4111 235.615 57.8788 234.121 55.9975 234.121C54.1163 234.121 52.5991 235.615 52.5991 237.467C52.5839 239.335 54.1163 240.828 55.9975 240.828Z" fill="black" fill-opacity="0.5"/>
<path d="M50.7639 232.418C52.099 232.418 53.1762 231.358 53.1762 230.043C53.1762 228.728 52.099 227.667 50.7639 227.667C49.4289 227.667 48.3517 228.728 48.3517 230.043C48.3517 231.358 49.4289 232.418 50.7639 232.418Z" fill="black" fill-opacity="0.5"/>
<path d="M45.8782 224.77C47.2133 224.77 48.2905 223.71 48.2905 222.395C48.2905 221.08 47.2133 220.02 45.8782 220.02C44.5431 220.02 43.4659 221.08 43.4659 222.395C43.4659 223.71 44.5431 224.77 45.8782 224.77Z" fill="black" fill-opacity="0.5"/>
<path d="M41.3425 216.624C42.5259 216.624 43.4817 215.683 43.4817 214.503C43.4817 213.338 42.5259 212.396 41.3425 212.396C40.1592 212.396 39.2034 213.338 39.2034 214.503C39.2034 215.683 40.1592 216.624 41.3425 216.624Z" fill="black" fill-opacity="0.5"/>
<path d="M37.1855 208.406C38.2778 208.406 39.1578 207.539 39.1578 206.464C39.1578 205.388 38.2778 204.521 37.1855 204.521C36.0932 204.521 35.2132 205.388 35.2132 206.464C35.198 207.524 36.0932 208.406 37.1855 208.406Z" fill="black" fill-opacity="0.5"/>
<path d="M33.3764 199.835C34.2867 199.835 35.0149 199.118 35.0149 198.222C35.0149 197.325 34.2867 196.608 33.3764 196.608C32.4661 196.608 31.7379 197.325 31.7379 198.222C31.7379 199.118 32.4813 199.835 33.3764 199.835Z" fill="black" fill-opacity="0.5"/>
<path d="M29.9635 191.51C30.9041 191.51 31.6627 190.764 31.6627 189.837C31.6627 188.911 30.9041 188.164 29.9635 188.164C29.0229 188.164 28.2643 188.911 28.2643 189.837C28.2643 190.764 29.0229 191.51 29.9635 191.51Z" fill="black" fill-opacity="0.5"/>
<path d="M26.9293 182.964C27.8699 182.964 28.6285 182.217 28.6285 181.29C28.6285 180.364 27.8699 179.617 26.9293 179.617C25.9887 179.617 25.2301 180.364 25.2301 181.29C25.2301 182.217 25.9887 182.964 26.9293 182.964Z" fill="black" fill-opacity="0.5"/>
<path d="M24.2895 173.081C24.5322 173.081 24.7295 172.887 24.7295 172.648C24.7295 172.409 24.5322 172.214 24.2895 172.214C24.0467 172.214 23.8495 172.409 23.8495 172.648C23.8343 172.887 24.0467 173.081 24.2895 173.081Z" fill="black" fill-opacity="0.5"/>
<path d="M22.0444 164.452C22.3795 164.452 22.6512 164.185 22.6512 163.855C22.6512 163.525 22.3795 163.257 22.0444 163.257C21.7092 163.257 21.4375 163.525 21.4375 163.855C21.4375 164.185 21.7092 164.452 22.0444 164.452Z" fill="black" fill-opacity="0.5"/>
<path d="M20.1927 155.4C20.4203 155.4 20.6023 155.22 20.6023 154.996C20.6023 154.772 20.4203 154.593 20.1927 154.593C19.9651 154.593 19.7831 154.772 19.7831 154.996C19.7831 155.22 19.9803 155.4 20.1927 155.4Z" fill="black" fill-opacity="0.5"/>
<path d="M18.7668 146.378C18.9337 146.378 19.0702 146.244 19.0702 146.08C19.0702 145.915 18.9337 145.781 18.7668 145.781C18.5999 145.781 18.4634 145.915 18.4634 146.08C18.4634 146.244 18.5999 146.378 18.7668 146.378Z" fill="black" fill-opacity="0.5"/>
<path d="M17.7348 137.282C17.841 137.282 17.932 137.192 17.932 137.087C17.932 136.983 17.841 136.893 17.7348 136.893C17.6286 136.893 17.5376 136.983 17.5376 137.087C17.5224 137.192 17.6286 137.282 17.7348 137.282Z" fill="black" fill-opacity="0.5"/>
<path d="M17.1163 128.17C17.1784 128.17 17.225 128.124 17.225 128.062C17.225 128.001 17.1784 127.955 17.1163 127.955C17.0542 127.955 17.0076 128.001 17.0076 128.062C17.0076 128.124 17.0542 128.17 17.1163 128.17Z" fill="black" fill-opacity="0.5"/>
<path d="M147.36 320.786C149.151 320.786 150.592 319.352 150.592 317.604C150.592 315.856 149.151 314.422 147.36 314.422C145.57 314.422 144.129 315.841 144.129 317.604C144.129 319.367 145.57 320.786 147.36 320.786Z" fill="black" fill-opacity="0.5"/>
<path d="M138.803 317.749C140.745 317.749 142.308 316.196 142.308 314.298C142.308 312.386 140.73 310.847 138.803 310.847C136.861 310.847 135.299 312.401 135.299 314.298C135.299 316.21 136.861 317.749 138.803 317.749Z" fill="black" fill-opacity="0.5"/>
<path d="M130.398 313.896C132.219 313.896 133.706 312.447 133.706 310.64C133.706 308.847 132.234 307.383 130.398 307.383C128.578 307.383 127.091 308.832 127.091 310.64C127.106 312.432 128.578 313.896 130.398 313.896Z" fill="black" fill-opacity="0.5"/>
<path d="M122.175 309.986C124.057 309.986 125.574 308.492 125.574 306.639C125.574 304.787 124.057 303.293 122.175 303.293C120.294 303.293 118.777 304.787 118.777 306.639C118.762 308.477 120.294 309.986 122.175 309.986Z" fill="black" fill-opacity="0.5"/>
<path d="M114.12 305.668C116.016 305.668 117.564 304.159 117.564 302.277C117.564 300.41 116.032 298.886 114.12 298.886C112.224 298.886 110.676 300.395 110.676 302.277C110.691 304.144 112.224 305.668 114.12 305.668Z" fill="black" fill-opacity="0.5"/>
<path d="M106.261 301.08C108.218 301.08 109.811 299.526 109.811 297.599C109.811 295.671 108.218 294.118 106.261 294.118C104.304 294.118 102.726 295.686 102.726 297.599C102.726 299.511 104.319 301.08 106.261 301.08Z" fill="black" fill-opacity="0.5"/>
<path d="M98.6297 296.061C100.587 296.061 102.165 294.507 102.165 292.58C102.165 290.653 100.587 289.099 98.6297 289.099C96.6725 289.099 95.0947 290.653 95.0947 292.58C95.0795 294.507 96.6725 296.061 98.6297 296.061Z" fill="black" fill-opacity="0.5"/>
<path d="M91.2103 290.753C93.1826 290.753 94.7908 289.184 94.7908 287.227C94.7908 285.285 93.1978 283.701 91.2103 283.701C89.2381 283.701 87.6299 285.27 87.6299 287.227C87.6299 289.184 89.2381 290.753 91.2103 290.753Z" fill="black" fill-opacity="0.5"/>
<path d="M84.0192 284.617C85.7184 284.617 87.0839 283.273 87.0839 281.599C87.0839 279.926 85.7033 278.582 84.0192 278.582C82.32 278.582 80.9546 279.926 80.9546 281.599C80.9698 283.273 82.3352 284.617 84.0192 284.617Z" fill="black" fill-opacity="0.5"/>
<path d="M77.1011 278.926C78.9217 278.926 80.4085 277.477 80.4085 275.669C80.4085 273.876 78.9368 272.412 77.1011 272.412C75.2805 272.412 73.7937 273.861 73.7937 275.669C73.7937 277.462 75.2805 278.926 77.1011 278.926Z" fill="black" fill-opacity="0.5"/>
<path d="M70.4258 272.871C72.3374 272.871 73.9001 271.332 73.9001 269.45C73.9001 267.568 72.3374 266.029 70.4258 266.029C68.5142 266.029 66.9515 267.568 66.9515 269.45C66.9515 271.332 68.5142 272.871 70.4258 272.871Z" fill="black" fill-opacity="0.5"/>
<path d="M64.039 265.569C65.5107 265.569 66.6941 264.403 66.6941 262.954C66.6941 261.505 65.5107 260.34 64.039 260.34C62.5674 260.34 61.384 261.505 61.384 262.954C61.384 264.388 62.5826 265.569 64.039 265.569Z" fill="black" fill-opacity="0.5"/>
<path d="M57.9399 259.443C59.7605 259.443 61.2473 257.994 61.2473 256.187C61.2473 254.394 59.7757 252.93 57.9399 252.93C56.1194 252.93 54.6326 254.379 54.6326 256.187C54.6326 257.979 56.1194 259.443 57.9399 259.443Z" fill="black" fill-opacity="0.5"/>
<path d="M52.1445 251.828C53.6313 251.828 54.8298 250.648 54.8298 249.184C54.8298 247.72 53.6313 246.54 52.1445 246.54C50.6577 246.54 49.4591 247.72 49.4591 249.184C49.444 250.648 50.6577 251.828 52.1445 251.828Z" fill="black" fill-opacity="0.5"/>
<path d="M46.653 244.579C48.1398 244.579 49.3384 243.399 49.3384 241.935C49.3384 240.471 48.1398 239.291 46.653 239.291C45.1662 239.291 43.9677 240.486 43.9677 241.935C43.9525 243.399 45.1662 244.579 46.653 244.579Z" fill="black" fill-opacity="0.5"/>
<path d="M41.4789 235.765C42.2071 235.765 42.814 235.182 42.814 234.45C42.814 233.733 42.2223 233.136 41.4789 233.136C40.7507 233.136 40.1438 233.718 40.1438 234.45C40.1438 235.182 40.7355 235.765 41.4789 235.765Z" fill="black" fill-opacity="0.5"/>
<path d="M36.6231 228.784C37.7458 228.784 38.6712 227.887 38.6712 226.767C38.6712 225.661 37.7609 224.75 36.6231 224.75C35.5004 224.75 34.575 225.646 34.575 226.767C34.575 227.887 35.5004 228.784 36.6231 228.784Z" fill="black" fill-opacity="0.5"/>
<path d="M32.1178 219.493C32.4516 219.493 32.7247 219.224 32.7247 218.895C32.7247 218.566 32.4516 218.297 32.1178 218.297C31.7841 218.297 31.511 218.566 31.511 218.895C31.511 219.224 31.7841 219.493 32.1178 219.493Z" fill="black" fill-opacity="0.5"/>
<path d="M27.9611 212.111C28.6741 212.111 29.2507 211.543 29.2507 210.841C29.2507 210.139 28.6741 209.571 27.9611 209.571C27.248 209.571 26.6715 210.139 26.6715 210.841C26.6715 211.543 27.248 212.111 27.9611 212.111Z" fill="black" fill-opacity="0.5"/>
<path d="M24.1545 202.648C24.1706 202.648 24.1868 202.632 24.1868 202.616C24.1868 202.6 24.1706 202.584 24.1545 202.584C24.1384 202.584 24.1223 202.6 24.1223 202.616C24.1223 202.632 24.1384 202.648 24.1545 202.648Z" fill="black" fill-opacity="0.5"/>
<path d="M20.7119 194.328C20.774 194.328 20.8206 194.282 20.8206 194.221C20.8206 194.159 20.774 194.113 20.7119 194.113C20.6497 194.113 20.6031 194.159 20.6031 194.221C20.6031 194.282 20.6497 194.328 20.7119 194.328Z" fill="black" fill-opacity="0.5"/>
<path d="M17.6292 185.893C17.7354 185.893 17.8264 185.803 17.8264 185.684C17.8264 185.579 17.7354 185.49 17.6292 185.49C17.523 185.49 17.432 185.579 17.432 185.684C17.4168 185.803 17.5078 185.893 17.6292 185.893Z" fill="black" fill-opacity="0.5"/>
<path d="M14.913 177.494C15.1557 177.494 15.353 177.3 15.353 177.061C15.353 176.822 15.1557 176.628 14.913 176.628C14.6703 176.628 14.473 176.822 14.473 177.061C14.473 177.285 14.6703 177.494 14.913 177.494Z" fill="black" fill-opacity="0.5"/>
<path d="M145.054 330.151C146.541 330.151 147.74 328.971 147.74 327.507C147.74 326.043 146.541 324.862 145.054 324.862C143.568 324.862 142.369 326.043 142.369 327.507C142.369 328.971 143.568 330.151 145.054 330.151Z" fill="black" fill-opacity="0.5"/>
<path d="M136.482 325.534C137.195 325.534 137.772 324.967 137.772 324.265C137.772 323.562 137.195 322.995 136.482 322.995C135.769 322.995 135.193 323.562 135.193 324.265C135.193 324.967 135.769 325.534 136.482 325.534Z" fill="black" fill-opacity="0.5"/>
<path d="M128.047 324.248C130.065 324.248 131.688 322.65 131.688 320.663C131.688 318.676 130.05 317.077 128.047 317.077C126.029 317.077 124.406 318.691 124.406 320.663C124.406 322.65 126.029 324.248 128.047 324.248Z" fill="black" fill-opacity="0.5"/>
<path d="M119.778 319.693C121.432 319.693 122.767 318.378 122.767 316.75C122.767 315.121 121.432 313.792 119.778 313.792C118.125 313.792 116.79 315.106 116.79 316.75C116.775 318.378 118.125 319.693 119.778 319.693Z" fill="black" fill-opacity="0.5"/>
<path d="M111.677 313.468C112.223 313.468 112.663 313.034 112.663 312.496C112.663 311.959 112.223 311.525 111.677 311.525C111.131 311.525 110.691 311.959 110.691 312.496C110.676 313.034 111.131 313.468 111.677 313.468Z" fill="black" fill-opacity="0.5"/>
<path d="M103.742 309.76C104.774 309.76 105.608 308.938 105.608 307.922C105.608 306.906 104.774 306.084 103.742 306.084C102.71 306.084 101.861 306.906 101.861 307.922C101.876 308.938 102.71 309.76 103.742 309.76Z" fill="black" fill-opacity="0.5"/>
<path d="M96.0198 303.472C96.2626 303.472 96.4598 303.278 96.4598 303.039C96.4598 302.8 96.2626 302.606 96.0198 302.606C95.7771 302.606 95.5798 302.8 95.5798 303.039C95.5798 303.278 95.7771 303.472 96.0198 303.472Z" fill="black" fill-opacity="0.5"/>
<path d="M88.5098 300.916C90.2393 300.916 91.6351 299.541 91.6351 297.838C91.6351 296.135 90.2241 294.761 88.5098 294.761C86.7802 294.761 85.3693 296.135 85.3693 297.838C85.3693 299.541 86.765 300.916 88.5098 300.916Z" fill="black" fill-opacity="0.5"/>
<path d="M81.2129 294.115C82.2142 294.115 83.0183 293.323 83.0183 292.337C83.0183 291.351 82.2142 290.56 81.2129 290.56C80.2116 290.56 79.4075 291.351 79.4075 292.337C79.4075 293.323 80.2116 294.115 81.2129 294.115Z" fill="black" fill-opacity="0.5"/>
<path d="M74.1428 288.601C75.2958 288.601 76.2213 287.69 76.2213 286.555C76.2213 285.419 75.2958 284.508 74.1428 284.508C72.9898 284.508 72.0643 285.419 72.0643 286.555C72.0643 287.69 73.005 288.601 74.1428 288.601Z" fill="black" fill-opacity="0.5"/>
<path d="M67.3311 283.454C68.9847 283.454 70.3198 282.139 70.3198 280.496C70.3198 278.867 68.9847 277.538 67.3311 277.538C65.6774 277.538 64.3423 278.867 64.3423 280.496C64.3271 282.124 65.6774 283.454 67.3311 283.454Z" fill="black" fill-opacity="0.5"/>
<path d="M60.7613 274.935C61.2013 274.935 61.5502 274.591 61.5502 274.158C61.5502 273.724 61.2013 273.381 60.7613 273.381C60.3214 273.381 59.9724 273.724 59.9724 274.158C59.9876 274.591 60.3365 274.935 60.7613 274.935Z" fill="black" fill-opacity="0.5"/>
<path d="M54.4804 267.805C54.617 267.805 54.7232 267.7 54.7232 267.566C54.7232 267.431 54.617 267.327 54.4804 267.327C54.3439 267.327 54.2377 267.431 54.2377 267.566C54.2377 267.7 54.3439 267.805 54.4804 267.805Z" fill="black" fill-opacity="0.5"/>
<path d="M48.4576 261.922C49.11 261.922 49.6561 261.399 49.6561 260.741C49.6561 260.099 49.1251 259.561 48.4576 259.561C47.8052 259.561 47.259 260.084 47.259 260.741C47.2742 261.384 47.8052 261.922 48.4576 261.922Z" fill="black" fill-opacity="0.5"/>
<path d="M42.7402 253.707C42.7563 253.707 42.7724 253.691 42.7724 253.675C42.7724 253.66 42.7563 253.644 42.7402 253.644C42.7241 253.644 42.708 253.66 42.708 253.675C42.6919 253.691 42.708 253.707 42.7402 253.707Z" fill="black" fill-opacity="0.5"/>
<path d="M37.3064 246.687C37.4732 246.687 37.6098 246.553 37.6098 246.389C37.6098 246.224 37.4732 246.09 37.3064 246.09C37.1395 246.09 37.0029 246.224 37.0029 246.389C37.0029 246.553 37.1395 246.687 37.3064 246.687Z" fill="black" fill-opacity="0.5"/>
<path d="M32.181 238.978C32.2431 238.978 32.2897 238.932 32.2897 238.87C32.2897 238.809 32.2431 238.763 32.181 238.763C32.1189 238.763 32.0723 238.809 32.0723 238.87C32.0723 238.932 32.1344 238.978 32.181 238.978Z" fill="black" fill-opacity="0.5"/>
<path d="M27.3718 231.271C27.4339 231.271 27.4805 231.225 27.4805 231.163C27.4805 231.102 27.4339 231.056 27.3718 231.056C27.3097 231.056 27.2631 231.102 27.2631 231.163C27.2786 231.225 27.3252 231.271 27.3718 231.271Z" fill="black" fill-opacity="0.5"/>
<path d="M14.9314 207.012C14.9475 207.012 14.9636 206.996 14.9636 206.98C14.9636 206.964 14.9475 206.948 14.9314 206.948C14.9153 206.948 14.8991 206.964 14.8991 206.98C14.883 206.996 14.8991 207.012 14.9314 207.012Z" fill="black" fill-opacity="0.5"/>
<path d="M142.751 337.512C142.813 337.512 142.859 337.466 142.859 337.405C142.859 337.343 142.813 337.297 142.751 337.297C142.688 337.297 142.642 337.343 142.642 337.405C142.657 337.466 142.688 337.512 142.751 337.512Z" fill="black" fill-opacity="0.5"/>
<path d="M134.162 334.237C134.178 334.237 134.195 334.221 134.195 334.205C134.195 334.189 134.178 334.173 134.162 334.173C134.146 334.173 134.13 334.189 134.13 334.205C134.13 334.221 134.146 334.237 134.162 334.237Z" fill="black" fill-opacity="0.5"/>
<path d="M125.696 330.917C125.832 330.917 125.938 330.812 125.938 330.678C125.938 330.544 125.832 330.439 125.696 330.439C125.559 330.439 125.453 330.544 125.453 330.678C125.468 330.812 125.574 330.917 125.696 330.917Z" fill="black" fill-opacity="0.5"/>
<path d="M117.382 327.073C117.518 327.073 117.625 326.969 117.625 326.834C117.625 326.7 117.518 326.595 117.382 326.595C117.245 326.595 117.139 326.7 117.139 326.834C117.154 326.969 117.261 327.073 117.382 327.073Z" fill="black" fill-opacity="0.5"/>
<path d="M109.236 322.718C109.253 322.718 109.269 322.702 109.269 322.686C109.269 322.67 109.253 322.654 109.236 322.654C109.22 322.654 109.204 322.67 109.204 322.686C109.204 322.702 109.22 322.718 109.236 322.718Z" fill="black" fill-opacity="0.5"/>
<path d="M101.254 318.408C101.361 318.408 101.452 318.319 101.452 318.214C101.452 318.11 101.361 318.02 101.254 318.02C101.148 318.02 101.042 318.11 101.042 318.214C101.042 318.319 101.133 318.408 101.254 318.408Z" fill="black" fill-opacity="0.5"/>
<path d="M93.4431 313.532C93.5052 313.532 93.5518 313.486 93.5518 313.424C93.5518 313.363 93.5052 313.317 93.4431 313.317C93.3809 313.317 93.3344 313.363 93.3344 313.424C93.3499 313.501 93.3965 313.532 93.4431 313.532Z" fill="black" fill-opacity="0.5"/>
<path d="M85.8426 308.463C85.9048 308.463 85.9514 308.417 85.9514 308.355C85.9514 308.294 85.9048 308.248 85.8426 308.248C85.7805 308.248 85.7339 308.294 85.7339 308.355C85.7339 308.417 85.7805 308.463 85.8426 308.463Z" fill="black" fill-opacity="0.5"/>
<path d="M78.4539 303.1C78.5161 303.1 78.5627 303.054 78.5627 302.993C78.5627 302.931 78.5161 302.885 78.4539 302.885C78.3918 302.885 78.3452 302.931 78.3452 302.993C78.3452 303.054 78.3918 303.1 78.4539 303.1Z" fill="black" fill-opacity="0.5"/>
<path d="M71.2603 297.569C71.3665 297.569 71.4576 297.48 71.4576 297.375C71.4576 297.27 71.3665 297.181 71.2603 297.181C71.1541 297.181 71.0631 297.27 71.0631 297.375C71.0631 297.48 71.1541 297.569 71.2603 297.569Z" fill="black" fill-opacity="0.5"/>
<path d="M64.3136 291.489C64.3297 291.489 64.3458 291.473 64.3458 291.457C64.3458 291.441 64.3297 291.425 64.3136 291.425C64.2975 291.425 64.2814 291.441 64.2814 291.457C64.2814 291.473 64.2975 291.489 64.3136 291.489Z" fill="black" fill-opacity="0.5"/>
<path d="M57.5931 285.319C57.6092 285.319 57.6254 285.303 57.6254 285.287C57.6254 285.271 57.6092 285.255 57.5931 285.255C57.577 285.255 57.5609 285.271 57.5609 285.287C57.5609 285.303 57.577 285.319 57.5931 285.319Z" fill="black" fill-opacity="0.5"/>
<path d="M51.1451 278.883C51.1613 278.883 51.1774 278.867 51.1774 278.851C51.1774 278.835 51.1613 278.819 51.1451 278.819C51.129 278.819 51.1129 278.835 51.1129 278.851C51.0968 278.867 51.129 278.883 51.1451 278.883Z" fill="black" fill-opacity="0.5"/>
<path d="M44.9401 272.22C44.9562 272.22 44.9723 272.204 44.9723 272.188C44.9723 272.172 44.9562 272.156 44.9401 272.156C44.9239 272.156 44.9078 272.172 44.9078 272.188C44.9078 272.204 44.9078 272.22 44.9401 272.22Z" fill="black" fill-opacity="0.5"/>
<path d="M33.3492 258.19C33.3653 258.19 33.3815 258.174 33.3815 258.158C33.3815 258.142 33.3653 258.126 33.3492 258.126C33.3331 258.126 33.317 258.142 33.317 258.158C33.317 258.174 33.3331 258.19 33.3492 258.19Z" fill="black" fill-opacity="0.5"/>
<path d="M115.016 336.937C115.032 336.937 115.049 336.921 115.049 336.905C115.049 336.889 115.032 336.873 115.016 336.873C115 336.873 114.984 336.889 114.984 336.905C114.984 336.921 114.984 336.937 115.016 336.937Z" fill="black" fill-opacity="0.5"/>
<path d="M106.809 332.862C106.825 332.862 106.841 332.846 106.841 332.83C106.841 332.814 106.825 332.798 106.809 332.798C106.792 332.798 106.776 332.814 106.776 332.83C106.776 332.846 106.792 332.862 106.809 332.862Z" fill="black" fill-opacity="0.5"/>
<path d="M98.768 328.498C98.7841 328.498 98.8002 328.482 98.8002 328.466C98.8002 328.451 98.7841 328.435 98.768 328.435C98.768 328.435 98.7358 328.451 98.7358 328.466C98.7358 328.482 98.7519 328.498 98.768 328.498Z" fill="black" fill-opacity="0.5"/>
<path d="M90.9088 323.821C90.9249 323.821 90.941 323.805 90.941 323.789C90.941 323.773 90.9249 323.757 90.9088 323.757C90.8927 323.757 90.8766 323.773 90.8766 323.789C90.8766 323.805 90.8927 323.821 90.9088 323.821Z" fill="black" fill-opacity="0.5"/>
<path d="M83.2328 318.874C83.2489 318.874 83.265 318.858 83.265 318.842C83.265 318.826 83.2489 318.81 83.2328 318.81C83.2167 318.81 83.2005 318.826 83.2005 318.842C83.1844 318.858 83.2005 318.874 83.2328 318.874Z" fill="black" fill-opacity="0.5"/>
<path d="M75.7377 313.635C75.7538 313.635 75.7699 313.619 75.7699 313.603C75.7699 313.587 75.7538 313.571 75.7377 313.571C75.7215 313.571 75.7054 313.587 75.7054 313.603C75.7054 313.619 75.7054 313.635 75.7377 313.635Z" fill="black" fill-opacity="0.5"/>
<path d="M68.456 308.136C68.4721 308.136 68.4882 308.12 68.4882 308.104C68.4882 308.088 68.4721 308.072 68.456 308.072C68.4399 308.072 68.4238 308.088 68.4238 308.104C68.4077 308.12 68.4238 308.136 68.456 308.136Z" fill="black" fill-opacity="0.5"/>
<path d="M41.5413 283.544C41.5574 283.544 41.5735 283.528 41.5735 283.512C41.5735 283.496 41.5574 283.48 41.5413 283.48C41.5251 283.48 41.509 283.496 41.509 283.512C41.509 283.528 41.5251 283.544 41.5413 283.544Z" fill="black" fill-opacity="0.5"/>
<path d="M35.4278 276.804C35.4439 276.804 35.46 276.788 35.46 276.772C35.46 276.756 35.4439 276.74 35.4278 276.74C35.4117 276.74 35.3956 276.756 35.3956 276.772C35.3795 276.788 35.3956 276.804 35.4278 276.804Z" fill="black" fill-opacity="0.5"/>
<path d="M29.5566 269.844C29.5727 269.844 29.5889 269.828 29.5889 269.812C29.5889 269.796 29.5727 269.78 29.5566 269.78C29.5405 269.78 29.5244 269.796 29.5244 269.812C29.5244 269.828 29.5405 269.844 29.5566 269.844Z" fill="black" fill-opacity="0.5"/>
<path d="M104.411 343.005C104.428 343.005 104.444 342.989 104.444 342.973C104.444 342.957 104.428 342.941 104.411 342.941C104.395 342.941 104.379 342.957 104.379 342.973C104.363 342.989 104.379 343.005 104.411 343.005Z" fill="black" fill-opacity="0.5"/>
<path d="M58.5048 313.261C58.5824 313.261 58.6446 313.2 58.6446 313.123C58.6446 313.046 58.5824 312.985 58.5048 312.985C58.4271 312.985 58.365 313.046 58.365 313.123C58.365 313.2 58.4271 313.261 58.5048 313.261Z" fill="black" fill-opacity="0.5"/>
<path d="M31.9674 288.178C31.9835 288.178 31.9996 288.162 31.9996 288.146C31.9996 288.13 31.9835 288.114 31.9674 288.114C31.9513 288.114 31.9352 288.13 31.9352 288.146C31.9352 288.162 31.9513 288.178 31.9674 288.178Z" fill="black" fill-opacity="0.5"/>
<path d="M25.93 281.362C25.9462 281.362 25.9623 281.346 25.9623 281.33C25.9623 281.314 25.9462 281.298 25.93 281.298C25.9139 281.298 25.8978 281.314 25.8978 281.33C25.8978 281.346 25.9139 281.362 25.93 281.362Z" fill="black" fill-opacity="0.5"/>
<path d="M62.9636 329.406C62.9797 329.406 62.9958 329.39 62.9958 329.374C62.9958 329.358 62.9797 329.342 62.9636 329.342C62.9475 329.342 62.9314 329.358 62.9314 329.374C62.9314 329.39 62.9475 329.406 62.9636 329.406Z" fill="black" fill-opacity="0.5"/>
<path d="M55.6971 323.882C55.7132 323.882 55.7293 323.866 55.7293 323.85C55.7293 323.834 55.7132 323.818 55.6971 323.818C55.681 323.818 55.6649 323.834 55.6649 323.85C55.6488 323.866 55.6649 323.882 55.6971 323.882Z" fill="black" fill-opacity="0.5"/>
<path d="M5.25158 271.575C5.26769 271.575 5.2838 271.559 5.2838 271.543C5.2838 271.527 5.26769 271.511 5.25158 271.511C5.23547 271.511 5.21936 271.527 5.21936 271.543C5.21936 271.559 5.23547 271.575 5.25158 271.575Z" fill="black" fill-opacity="0.5"/>
<path d="M0.0322212 264.139C0.0483319 264.139 0.0644425 264.123 0.0644425 264.107C0.0644425 264.091 0.0483319 264.075 0.0322212 264.075C0.0161106 264.075 0 264.091 0 264.107C0 264.123 0.0161106 264.139 0.0322212 264.139Z" fill="black" fill-opacity="0.5"/>
</svg>
