<svg width="81" height="118" viewBox="0 0 81 118" fill="none" xmlns="http://www.w3.org/2000/svg">
<path d="M18.2288 72.7098C18.2567 77.3098 18.2939 81.8998 18.3311 86.4998C11.5808 74.0898 7.83372 60.0898 7.4339 45.6598C6.9876 29.6898 11.1345 16.0898 16.5087 1.49982C17.0294 0.0698187 15.1047 -0.500181 14.3795 0.539819C5.6115 13.1298 2.44089 31.1498 2.78492 46.5798C3.11035 61.3998 6.78304 75.8398 13.5706 88.6698C9.2656 85.6498 5.45343 81.8098 2.47808 77.3098C1.69705 76.1298 -0.0416666 77.1598 0.637085 78.4698C4.96064 86.7798 11.181 93.1798 19.4004 96.9098C20.7858 97.5398 22.4873 96.8398 22.4873 94.9998C22.4966 87.5698 22.4966 80.1298 22.4873 72.6998C22.4966 69.7498 18.2103 69.7498 18.2288 72.7098Z" fill="#3F3E3E" fill-opacity="0.5"/>
<path d="M80.0789 114.29C78.0799 106.24 75.3463 98.5098 71.9897 90.9997C70.7903 88.3197 67.0804 90.6598 68.2798 93.3298C70.4649 98.1998 72.3151 103.19 73.933 108.28C62.0595 99.3997 52.3803 87.5897 45.6021 73.8397C38.6379 59.7097 36.5644 45.2097 34.305 29.6497C34.2121 29.0197 33.2172 29.0197 33.1242 29.6497C30.7904 45.1997 35.6253 62.2797 42.0223 76.0897C47.7313 88.4097 55.8112 99.2097 65.6206 107.92C61.1483 106.03 56.7224 104.01 52.1664 102.14C50.9763 101.65 50.5207 103.48 51.3668 104.18C58.9168 110.36 68.5123 114.16 77.5313 117.03C79.0562 117.52 80.4788 115.9 80.0789 114.29Z" fill="#3F3E3E" fill-opacity="0.5"/>
</svg>
